<svg width="56" height="46" viewBox="0 0 56 46" fill="none" xmlns="http://www.w3.org/2000/svg">
<path fill-rule="evenodd" clip-rule="evenodd" d="M29.2487 37.3871C28.0025 36.9739 26.8552 36.3514 25.8375 35.4916C24.8094 34.624 24.0407 33.6139 23.5042 32.5115C20.1083 25.5208 26.1108 14.7941 35.7068 13.0372C38.5175 7.20925 34.3605 2.61467 27.493 4.36908C23.6556 5.3496 18.5041 7.31704 14.1829 14.1447C13.0227 16.2752 12.1397 18.5738 11.6007 20.9904C10.1697 27.4305 11.4723 33.4407 14.7193 37.8723C15.6536 39.1454 16.7497 40.2915 17.9882 41.2758C20.7757 43.4961 24.2794 44.9156 28.2926 45.2236C40.2847 46.1412 52.2511 36.7839 55.0258 24.3183C55.1708 23.6535 55.2915 22.9951 55.3813 22.3431C51.671 32.5846 38.0952 40.3248 29.2487 37.3871Z" fill="#4C6ED7"/>
<path opacity="0.25" fill-rule="evenodd" clip-rule="evenodd" d="M29.2487 37.3871C29.173 37.3615 29.0986 37.3371 29.0228 37.3089C27.4841 38.0327 25.9427 38.6821 24.4334 39.2545C40.1473 45.2351 52.4475 33.329 55.38 22.3444C51.671 32.5846 38.0952 40.3248 29.2487 37.3871Z" fill="#B6FFFF"/>
<path opacity="0.25" fill-rule="evenodd" clip-rule="evenodd" d="M29.2487 37.3871C28.1578 37.0265 27.1401 36.5029 26.2238 35.8008C25.2586 36.3527 24.2665 36.8866 23.2437 37.4077C21.2185 38.4357 19.0855 39.4008 16.8562 40.2979C17.2168 40.6393 17.5954 40.9678 17.9869 41.2784C18.4053 41.6121 18.839 41.9278 19.2882 42.223C21.8281 41.8444 24.2345 41.3734 26.5125 40.8112C29.1615 40.1593 32.112 39.1864 35.1254 37.921C33.0514 38.1418 31.0519 37.9865 29.2487 37.3871Z" fill="#01052D"/>
<path opacity="0.25" fill-rule="evenodd" clip-rule="evenodd" d="M27.4918 4.36909C23.6544 5.3496 18.5028 7.31704 14.1816 14.1447C18.6235 10.0545 28.8676 8.49778 28.1437 16.7462C30.2267 14.9238 32.8012 13.5672 35.7055 13.0359C38.5162 7.20924 34.3605 2.61468 27.4918 4.36909Z" fill="#01052D"/>
<path opacity="0.15" fill-rule="evenodd" clip-rule="evenodd" d="M27.4918 4.36908C23.6544 5.3496 18.5028 7.31704 14.1816 14.1447C20.2983 7.06549 34.2501 2.59927 33.3299 13.6763C34.0948 13.4029 34.8867 13.1873 35.7068 13.0372C38.5162 7.20925 34.3605 2.61467 27.4918 4.36908Z" fill="#01052D"/>
<path fill-rule="evenodd" clip-rule="evenodd" d="M14.1816 14.1447C22.7368 2.66469 37.1571 1.73167 35.6183 15.2331C34.9137 21.3921 30.4474 27.3856 23.5029 32.5115C20.8989 34.4314 17.9484 36.2308 14.7168 37.8735C10.2826 40.1272 5.31713 42.0818 0 43.6437C6.72502 43.4101 12.6993 42.5785 17.9856 41.2771C31.161 38.0365 51.7275 26.9235 50.5262 10.8233C49.2749 -5.97259 22.9524 -1.94272 14.1816 14.1447Z" fill="#4C6ED7"/>
<path opacity="0.3" fill-rule="evenodd" clip-rule="evenodd" d="M32.959 6.08368C30.2498 4.27922 26.6447 4.76306 23.7776 5.89758C21.8923 6.64452 17.4889 9.08811 14.1816 14.1447C22.7368 2.66469 37.1571 1.73167 35.6183 15.233C34.9137 21.3921 30.4474 27.3856 23.5029 32.5115C20.8989 34.4314 17.9484 36.2308 14.7168 37.8735C10.2826 40.1272 5.31713 42.0818 0 43.6437C6.02043 42.1549 11.2144 40.1413 14.9144 38.2598C17.992 36.6979 20.9811 34.914 23.7609 32.8606C29.413 28.6895 35.2165 22.5882 36.0482 15.2844C36.2638 13.3991 36.2215 11.3739 35.5849 9.57197C35.0818 8.1474 34.2245 6.92816 32.959 6.08368Z" fill="#B6FFFF"/>
<path opacity="0.25" fill-rule="evenodd" clip-rule="evenodd" d="M14.1816 14.1447C22.2298 3.34363 35.4732 1.87928 35.726 12.9948L35.7286 12.9922C41.7645 12.2273 49.538 14.173 48.1186 21.3549C49.8781 18.149 50.8111 14.6247 50.5275 10.8246C49.2749 -5.97256 22.9524 -1.9427 14.1816 14.1447Z" fill="#114FEE"/>
<path opacity="0.25" fill-rule="evenodd" clip-rule="evenodd" d="M16.6111 10.5127C22.2439 5.14295 29.0896 1.96012 34.5838 1.84461C45.9586 1.60847 46.3025 13.7533 40.1332 22.705C32.9988 33.0569 16.3351 39.8282 2.75163 42.7902C1.84683 43.0854 0.929192 43.3716 0.00129318 43.6424C6.72631 43.4089 12.7006 42.5772 17.9869 41.2758C31.1623 38.0352 51.7288 26.9223 50.5275 10.822C49.375 -4.62756 27.013 -2.4535 16.6111 10.5127Z" fill="#B6FFFF"/>
</svg>
