<svg width="375" height="435" viewBox="0 0 375 435" fill="none" xmlns="http://www.w3.org/2000/svg">
<mask id="mask0_105_1870" style="mask-type:alpha" maskUnits="userSpaceOnUse" x="0" y="0" width="375" height="435">
<path d="M0 0H375V247.5C375 351.053 291.053 435 187.5 435C83.9466 435 0 351.053 0 247.5V0Z" fill="#C4C4C4"/>
</mask>
<g mask="url(#mask0_105_1870)">
<mask id="mask1_105_1870" style="mask-type:alpha" maskUnits="userSpaceOnUse" x="0" y="0" width="375" height="435">
<path d="M0 0H375V247.5C375 351.053 291.053 435 187.5 435C83.9466 435 0 351.053 0 247.5V0Z" fill="url(#paint0_linear_105_1870)"/>
</mask>
<g mask="url(#mask1_105_1870)">
<path d="M0 0H375V247.5C375 351.053 291.053 435 187.5 435C83.9466 435 0 351.053 0 247.5V0Z" fill="url(#paint1_linear_105_1870)"/>
<path d="M101.92 403.045C113.076 444.678 78.7055 478.925 56.2137 509.551C51.4505 505.769 46.0186 502.912 42.4859 498.543C39.2953 494.598 33.5027 489.89 29.4047 486.788C24.9287 483.4 24.1382 479.086 21.2209 474.326C14.852 463.935 11.9315 449.602 8.7731 437.814C5.5674 425.851 -0.53337 419.393 -10.6034 411.153C-33.0926 392.75 -53.6848 375.433 -70.969 351.752C-76.6837 343.923 -78.0127 333.601 -80.4819 324.386C-84.4195 309.691 -88.9447 295.032 -92.3209 280.202C-97.1 259.21 -77.7044 250.84 -60.3631 253.472C-56.0515 254.126 -52.5969 255.251 -48.566 256.366C-41.4425 258.337 -33.986 257.358 -26.9112 259.89C-13.2646 264.775 6.31242 264.596 20.3631 261.393C41.7221 256.525 59.3094 265.331 79.5416 267.095C139.103 272.288 106.579 320.873 95.6863 351.304C90.6799 365.29 98.2484 389.343 101.92 403.045Z" fill="#3E61CC"/>
<path d="M280.144 -3.23767C258.593 -40.5648 282.928 -82.5398 296.727 -117.943C302.307 -115.523 308.293 -114.169 312.836 -110.864C316.939 -107.879 323.753 -104.831 328.514 -102.895C333.714 -100.781 335.595 -96.8184 339.644 -92.9758C348.486 -84.587 355.016 -71.4983 361.118 -60.9301C367.311 -50.2036 374.875 -45.5454 386.735 -40.1923C413.221 -28.2371 437.593 -16.84 460.417 1.56077C467.964 7.64454 471.919 17.2706 476.689 25.5326C484.296 38.708 492.461 51.6955 499.56 65.1467C509.61 84.1869 493.041 97.2912 475.61 99.2374C471.276 99.7213 467.648 99.5287 463.465 99.4947C456.075 99.4346 449.126 102.311 441.637 101.696C427.191 100.509 408.327 105.75 395.584 112.479C376.213 122.709 356.946 118.756 336.946 122.288C278.07 132.688 296.911 77.3404 299.557 45.1273C300.773 30.3221 287.237 9.04795 280.144 -3.23767Z" fill="#3E61CC"/>
</g>
<path d="M183.957 363C233.399 363 273.479 355.143 273.479 345.451C273.479 335.759 233.399 327.902 183.957 327.902C134.515 327.902 94.4346 335.759 94.4346 345.451C94.4346 355.143 134.515 363 183.957 363Z" fill="#4C6ED7"/>
<path opacity="0.5" d="M183.957 363C233.399 363 273.479 355.143 273.479 345.451C273.479 335.759 233.399 327.902 183.957 327.902C134.515 327.902 94.4346 335.759 94.4346 345.451C94.4346 355.143 134.515 363 183.957 363Z" fill="#153AAC"/>
<path d="M278.994 112H214.446C212.241 112 210.454 113.752 210.454 115.914V185.661C210.454 187.823 212.241 189.575 214.446 189.575H278.994C281.199 189.575 282.987 187.823 282.987 185.661V115.914C282.987 113.752 281.199 112 278.994 112Z" fill="white"/>
<path d="M214.446 112H278.988C280.041 112 281.052 112.41 281.797 113.141C282.542 113.871 282.96 114.861 282.96 115.894V119.957H210.454V115.914C210.451 115.399 210.553 114.889 210.752 114.413C210.952 113.937 211.246 113.504 211.617 113.141C211.989 112.777 212.43 112.488 212.915 112.293C213.401 112.097 213.921 111.997 214.446 112Z" fill="#263238"/>
<path d="M233.925 130.036C234.069 129.597 234.145 129.14 234.15 128.679C234.15 126.998 232.409 126.901 230.701 126.901H230.27V126.505H237.725V126.901C235.785 126.901 235.077 128.115 234.474 129.912L230.502 141.536C230.204 142.399 229.952 143.042 229.019 143.042H228.939L225.443 131.937L222.193 141.562C221.888 142.425 221.636 143.068 220.703 143.068H220.63L215.545 126.901H213.757V126.505H220.299V126.901H218.438L222.212 139.634H222.365L225.212 131.178L223.888 126.933H222.1V126.505H228.648V126.901H226.788L230.561 139.634H230.707L233.925 130.036Z" fill="#4C6ED7"/>
<path d="M278.113 122.825H248.08V149.434H278.113V122.825Z" fill="#4C6ED7"/>
<path d="M278.113 133.949C277.106 134.005 276.105 134.142 275.121 134.358C270.559 135.332 269.367 141.75 264.209 141.75C259.641 141.75 259.25 135.721 252.702 134.942C251.109 134.696 249.477 134.979 248.067 135.747V149.434H278.113V133.949Z" fill="#263238"/>
<path d="M258.059 128.913C258.06 129.568 257.863 130.209 257.492 130.754C257.122 131.3 256.594 131.725 255.977 131.976C255.36 132.227 254.68 132.294 254.025 132.166C253.369 132.039 252.767 131.723 252.294 131.26C251.822 130.797 251.5 130.206 251.37 129.564C251.24 128.921 251.307 128.255 251.563 127.65C251.82 127.045 252.254 126.528 252.81 126.165C253.366 125.801 254.02 125.608 254.688 125.61C255.582 125.61 256.439 125.958 257.071 126.577C257.704 127.197 258.059 128.037 258.059 128.913Z" fill="#FCD9D9"/>
<path d="M279.484 114.33H212.632V116.855H279.484V114.33Z" fill="#FCD9D9"/>
<path d="M275.313 205.053H246.372C245.234 205.053 244.143 205.496 243.339 206.285C242.534 207.074 242.082 208.143 242.082 209.259V224.432C242.082 225.548 242.534 226.617 243.339 227.406C244.143 228.195 245.234 228.638 246.372 228.638H247.26C246.359 230.585 244.611 233.57 241.85 235.342C241.85 235.342 247.723 234.94 253.841 228.638H275.299C276.437 228.638 277.529 228.195 278.333 227.406C279.138 226.617 279.59 225.548 279.59 224.432V209.259C279.59 208.146 279.14 207.078 278.338 206.29C277.536 205.501 276.448 205.057 275.313 205.053Z" fill="#263238"/>
<path d="M255.867 216.307C255.868 215.878 255.74 215.458 255.497 215.1C255.255 214.743 254.909 214.464 254.505 214.299C254.101 214.134 253.655 214.091 253.226 214.174C252.796 214.258 252.402 214.464 252.092 214.768C251.782 215.071 251.571 215.458 251.486 215.879C251.401 216.3 251.446 216.737 251.614 217.133C251.782 217.529 252.066 217.868 252.431 218.106C252.796 218.343 253.224 218.469 253.662 218.468C254.246 218.466 254.806 218.238 255.219 217.833C255.632 217.428 255.865 216.88 255.867 216.307Z" fill="#4C6ED7"/>
<path d="M263.368 216.307C263.368 215.88 263.239 215.462 262.997 215.106C262.755 214.751 262.41 214.474 262.007 214.31C261.605 214.147 261.161 214.104 260.734 214.187C260.306 214.271 259.913 214.477 259.605 214.779C259.296 215.081 259.086 215.466 259.001 215.885C258.916 216.305 258.96 216.739 259.127 217.134C259.294 217.529 259.576 217.866 259.939 218.104C260.301 218.341 260.728 218.468 261.164 218.468C261.748 218.466 262.308 218.238 262.721 217.833C263.134 217.428 263.367 216.88 263.368 216.307Z" fill="#4C6ED7"/>
<path d="M270.877 216.307C270.878 215.878 270.749 215.458 270.507 215.101C270.265 214.744 269.92 214.465 269.516 214.3C269.112 214.135 268.667 214.091 268.238 214.174C267.808 214.257 267.414 214.463 267.104 214.765C266.794 215.068 266.583 215.455 266.497 215.875C266.411 216.296 266.454 216.732 266.622 217.129C266.789 217.525 267.072 217.864 267.436 218.102C267.8 218.341 268.228 218.468 268.665 218.468C269.25 218.466 269.811 218.238 270.225 217.834C270.639 217.429 270.873 216.88 270.877 216.307Z" fill="#4C6ED7"/>
<path d="M116.165 121.203H163.836C164.97 121.203 166.058 121.645 166.86 122.431C167.662 123.217 168.113 124.284 168.113 125.395V157.787H111.907V125.395C111.907 124.287 112.355 123.223 113.153 122.438C113.951 121.652 115.034 121.208 116.165 121.203Z" fill="#4C6ED7"/>
<path d="M168.086 152.562H111.907V157.767H168.086V152.562Z" fill="#263238"/>
<path d="M165.517 154.341H114.483V155.989H165.517V154.341Z" fill="white"/>
<path d="M140 145.411C144.286 145.411 147.76 142.005 147.76 137.804C147.76 133.603 144.286 130.198 140 130.198C135.714 130.198 132.24 133.603 132.24 137.804C132.24 142.005 135.714 145.411 140 145.411Z" fill="#263238"/>
<path d="M136.497 133.073L144.873 137.811L136.497 142.548V133.073Z" fill="white"/>
<path d="M143.586 171.342H90.267C89.2358 171.342 88.3999 172.161 88.3999 173.172V193.09C88.3999 194.101 89.2358 194.92 90.267 194.92H143.586C144.617 194.92 145.453 194.101 145.453 193.09V173.172C145.453 172.161 144.617 171.342 143.586 171.342Z" fill="#263238"/>
<path d="M95.3945 174.304L95.6726 174.758C94.4146 175.446 93.2427 176.653 93.2427 178.068C93.2266 178.311 93.2601 178.555 93.3413 178.785C93.4226 179.015 93.5499 179.227 93.7157 179.408C93.8816 179.59 94.0827 179.737 94.3073 179.841C94.5319 179.945 94.7755 180.004 95.0237 180.015C95.2091 180.015 95.3349 179.924 95.3349 179.743C95.3349 179.561 95.2422 179.502 95.0568 179.47C94.8068 179.404 94.589 179.252 94.4423 179.043C94.2955 178.834 94.2294 178.58 94.2557 178.328C94.2605 178.126 94.3071 177.928 94.3926 177.744C94.4781 177.561 94.6008 177.397 94.7531 177.261C94.9055 177.126 95.0844 177.022 95.2788 176.957C95.4733 176.891 95.6794 176.865 95.8844 176.88C96.1075 176.881 96.3282 176.926 96.5334 177.012C96.7386 177.097 96.9241 177.223 97.079 177.38C97.234 177.537 97.3552 177.723 97.4354 177.928C97.5157 178.132 97.5534 178.349 97.5463 178.568C97.5431 178.842 97.4834 179.114 97.3708 179.365C97.2583 179.617 97.0952 179.844 96.8912 180.032C96.6873 180.22 96.4467 180.367 96.1839 180.462C95.921 180.557 95.6413 180.599 95.3614 180.586C95.0134 180.608 94.6645 180.558 94.3375 180.44C94.0104 180.321 93.7123 180.137 93.4626 179.898C93.213 179.66 93.0172 179.372 92.8881 179.055C92.7589 178.737 92.6993 178.397 92.713 178.055C92.6931 176.413 93.9842 175.089 95.3945 174.304ZM101.082 174.304L101.36 174.758C100.095 175.446 98.9301 176.653 98.9301 178.068C98.9131 178.311 98.946 178.555 99.0269 178.786C99.1077 179.017 99.235 179.229 99.401 179.41C99.5671 179.592 99.7686 179.739 99.9936 179.843C100.219 179.947 100.463 180.005 100.711 180.015C100.897 180.015 101.022 179.924 101.022 179.743C101.022 179.561 100.93 179.502 100.744 179.47C100.494 179.404 100.276 179.252 100.13 179.043C99.9829 178.834 99.9168 178.58 99.9431 178.328C99.947 178.126 99.9929 177.927 100.078 177.743C100.163 177.559 100.286 177.395 100.439 177.259C100.591 177.124 100.77 177.02 100.965 176.955C101.16 176.89 101.367 176.864 101.572 176.88C101.795 176.881 102.016 176.926 102.221 177.012C102.426 177.097 102.612 177.223 102.766 177.38C102.921 177.537 103.043 177.723 103.123 177.928C103.203 178.132 103.241 178.349 103.234 178.568C103.23 178.842 103.169 179.113 103.056 179.364C102.944 179.615 102.78 179.842 102.577 180.03C102.373 180.218 102.133 180.364 101.87 180.46C101.608 180.555 101.328 180.598 101.049 180.586C100.701 180.607 100.353 180.557 100.026 180.438C99.6994 180.319 99.4018 180.134 99.1523 179.896C98.9029 179.658 98.7071 179.371 98.5776 179.054C98.4481 178.737 98.3877 178.396 98.4004 178.055C98.3739 176.413 99.665 175.089 101.082 174.304Z" fill="#4C6ED7"/>
<path d="M133.249 231.227C139.95 230.155 144.497 223.96 143.403 217.391C142.309 210.822 135.989 206.366 129.288 207.438C122.586 208.51 118.04 214.705 119.134 221.274C120.227 227.843 126.547 232.299 133.249 231.227Z" fill="#263238"/>
<path d="M139.067 226.057C142.848 221.837 142.423 215.411 138.117 211.705C133.812 207.999 127.257 208.415 123.475 212.636C119.694 216.856 120.119 223.282 124.425 226.988C128.73 230.694 135.286 230.277 139.067 226.057Z" fill="#F8F4F4"/>
<path d="M208.196 219.357C208.196 219.357 215.248 234.109 215.248 234.888C215.248 235.667 208.991 239.002 207.799 239.703C206.875 240.219 205.922 240.685 204.945 241.099L205.661 247.933C205.661 247.933 216.433 245.525 220.948 243.117C225.464 240.709 225.305 237.99 224.259 233.953C223.213 229.916 216.254 214.315 216.254 214.315L208.196 219.357Z" fill="#FCD9D9"/>
<g style="mix-blend-mode:multiply" opacity="0.5">
<path d="M220.928 243.117C225.444 240.709 225.285 237.99 224.239 233.953C223.193 229.916 216.234 214.315 216.234 214.315L215.109 215.015L214.751 215.664C214.751 215.664 221.246 231.292 221.637 236.497C221.902 239.995 214.718 244.357 209.971 246.849C213.493 245.934 218.287 244.525 220.928 243.117Z" fill="#4C6ED7"/>
</g>
<path d="M157.321 216.099C157.321 216.099 152.176 234.576 152.024 237.841C151.871 241.105 162.24 247.543 162.617 247.933C162.995 248.322 162.028 236.705 162.028 236.705L165.544 219.831L157.321 216.099Z" fill="#FCD9D9"/>
<g style="mix-blend-mode:multiply" opacity="0.5">
<path d="M159.678 217.611L159.565 217.112L157.321 216.099C157.321 216.099 152.176 234.576 152.024 237.841C151.871 241.105 162.24 247.543 162.617 247.933C162.77 248.088 162.71 246.349 162.584 244.201C159.499 241.637 155.069 238.029 154.553 236.51" fill="#4C6ED7"/>
</g>
<path d="M181.481 197.538C181.481 197.538 179.494 198.94 175.621 199.096C171.748 199.251 171.562 196.5 166.749 196.5C160.916 196.5 153.6 214.587 153.6 214.587C153.6 214.587 157.241 218.085 160.81 219.558C162.784 220.406 164.86 221.006 166.987 221.343L167.543 233.226H206.832L207.302 221.343L219.584 213.536C219.584 213.536 213.559 202.977 210.633 199.018C207.706 195.059 202.787 196.532 201.284 197.538C199.781 198.544 195.325 198.784 193.683 198.55C191.541 198.086 189.424 197.516 187.34 196.844C187.34 196.844 184.811 194.78 181.481 197.538Z" fill="#4C6ED7"/>
<path d="M173.641 184.727C173.641 184.727 172.132 182.17 170.947 183.487C169.762 184.805 171.9 187.835 173.085 188.841C174.27 189.847 175.144 189.231 175.072 188.147C174.999 187.063 173.641 184.727 173.641 184.727Z" fill="#4C6ED7"/>
<path opacity="0.5" d="M173.641 184.727C173.641 184.727 172.132 182.17 170.947 183.487C169.762 184.805 171.9 187.835 173.085 188.841C174.27 189.847 175.144 189.231 175.072 188.147C174.999 187.063 173.641 184.727 173.641 184.727Z" fill="#FCD9D9"/>
<path d="M197.603 184.727C197.603 184.727 199.106 182.17 200.297 183.487C201.489 184.805 199.344 187.835 198.159 188.841C196.974 189.847 196.093 189.231 196.173 188.147C196.252 187.063 197.603 184.727 197.603 184.727Z" fill="#4C6ED7"/>
<path opacity="0.5" d="M197.603 184.727C197.603 184.727 199.106 182.17 200.297 183.487C201.489 184.805 199.344 187.835 198.159 188.841C196.974 189.847 196.093 189.231 196.173 188.147C196.252 187.063 197.603 184.727 197.603 184.727Z" fill="#FCD9D9"/>
<path d="M180.766 196.999C181.513 200.313 182.466 203.579 183.619 206.78C185.049 210.271 187.737 210.271 188.85 208.019C189.962 205.767 190.67 197.376 190.67 197.376C190.67 197.376 183.222 198.395 180.766 196.999Z" fill="#FCD9D9"/>
<path d="M173.8 185.583C173.8 185.583 175.859 192.722 179.759 196.921C183.659 201.12 185.056 202.113 187.128 201.808C189.201 201.503 191.405 198.862 194.491 193.371C197.576 187.881 197.801 183.669 198.06 183.28C198.318 182.89 197.397 175.128 192.988 171.786C188.578 168.443 183.639 166.977 179.362 170.624C175.085 174.271 172.37 180.223 173.8 185.583Z" fill="#FCD9D9"/>
<g style="mix-blend-mode:multiply" opacity="0.5">
<path d="M192.968 171.76C188.532 168.424 183.619 166.951 179.342 170.598C175.065 174.245 172.37 180.223 173.8 185.583C173.8 185.583 174.191 186.959 174.965 188.828C174.963 188.589 174.997 188.351 175.065 188.121C176.012 185.181 178.806 179.489 188.207 182.098C195.676 184.162 194.762 190.6 194.067 194.033L194.471 193.319C197.563 187.809 197.781 183.617 198.04 183.228C198.298 182.838 197.404 175.102 192.968 171.76Z" fill="#4C6ED7"/>
</g>
<path d="M130.486 253.079L130.161 331.757C130.161 332.005 130.262 332.243 130.441 332.418C130.619 332.593 130.862 332.692 131.115 332.692C131.361 332.692 131.598 332.598 131.775 332.429C131.952 332.261 132.055 332.031 132.061 331.79L134.352 253.19L130.486 253.079Z" fill="#F8F4F4"/>
<path d="M125.083 271.472L124.772 352.811C124.771 352.934 124.795 353.056 124.843 353.169C124.89 353.283 124.96 353.386 125.049 353.473C125.138 353.56 125.243 353.629 125.359 353.676C125.475 353.723 125.6 353.746 125.725 353.745C125.971 353.745 126.208 353.652 126.386 353.485C126.563 353.319 126.668 353.091 126.679 352.85L128.963 271.576L125.083 271.472Z" fill="#F8F4F4"/>
<path d="M241.453 253.079L241.778 331.757C241.779 331.88 241.755 332.001 241.708 332.114C241.66 332.228 241.591 332.331 241.503 332.418C241.415 332.505 241.31 332.573 241.195 332.621C241.079 332.668 240.956 332.692 240.831 332.692C240.584 332.692 240.346 332.598 240.168 332.43C239.99 332.261 239.886 332.032 239.878 331.79L237.593 253.19L241.453 253.079Z" fill="#F8F4F4"/>
<path d="M246.863 271.472L247.187 352.811C247.188 352.934 247.164 353.056 247.116 353.169C247.069 353.283 246.999 353.386 246.91 353.473C246.821 353.56 246.716 353.629 246.6 353.676C246.484 353.723 246.359 353.746 246.234 353.745C245.988 353.745 245.752 353.652 245.576 353.485C245.399 353.318 245.296 353.09 245.287 352.85L242.996 271.576L246.863 271.472Z" fill="#F8F4F4"/>
<path d="M162.703 274.853L162.511 347.048C162.49 347.228 162.542 347.409 162.654 347.553C162.766 347.697 162.931 347.793 163.114 347.82C163.292 347.796 163.455 347.706 163.568 347.568C163.681 347.431 163.737 347.256 163.723 347.08L165.16 274.938L162.703 274.853Z" fill="white"/>
<path d="M209.322 272.53L209.501 335.534C209.516 335.687 209.471 335.839 209.375 335.96C209.278 336.081 209.139 336.161 208.984 336.183C208.83 336.161 208.691 336.081 208.596 335.96C208.501 335.839 208.457 335.686 208.474 335.534L207.249 272.582L209.322 272.53Z" fill="white"/>
<path d="M161.982 272.53L162.161 335.534C162.176 335.687 162.131 335.839 162.035 335.96C161.939 336.081 161.799 336.161 161.644 336.183C161.49 336.161 161.351 336.081 161.256 335.96C161.161 335.839 161.117 335.686 161.134 335.534L159.91 272.582L161.982 272.53Z" fill="white"/>
<path d="M207.991 274.853L208.196 347.048C208.217 347.228 208.166 347.409 208.054 347.553C207.941 347.697 207.776 347.793 207.594 347.82C207.416 347.794 207.254 347.704 207.142 347.567C207.029 347.43 206.973 347.256 206.984 347.08L205.548 274.938L207.991 274.853Z" fill="white"/>
<path d="M185.023 279.909C201.295 279.909 214.486 276.954 214.486 273.308C214.486 269.663 201.295 266.708 185.023 266.708C168.751 266.708 155.56 269.663 155.56 273.308C155.56 276.954 168.751 279.909 185.023 279.909Z" fill="#FCD9D9"/>
<path d="M170.675 329.336C170.675 329.336 169.133 331.504 170.238 332.581C171.344 333.659 172.443 333.23 172.331 334.314C172.218 335.398 170.457 339.071 168.914 342.965C167.371 346.859 170.569 350.753 173.549 349.676C176.528 348.599 176.197 337.773 176.634 335.826C177.071 333.879 177.409 333.555 177.296 331.718C177.184 329.882 177.078 327.935 175.641 327.714C174.204 327.493 171.337 328.584 170.675 329.336Z" fill="#FCD9D9"/>
<path d="M175.409 346.691C173.423 345.951 170.377 346.1 168.662 346.269C169.239 348.716 171.443 350.435 173.549 349.676C174.429 349.358 175.005 348.203 175.409 346.691Z" fill="#4C6ED7"/>
<path d="M167.259 324.579C167.259 324.579 170.457 329.882 171.337 331.283C172.218 332.685 175.204 332.257 175.535 330.31C175.866 328.363 174.317 322.957 174.317 322.957L167.696 324.579H167.259Z" fill="#FCD9D9"/>
<path d="M159.645 316.142C159.645 316.142 158.757 317.551 159.201 318.524C159.645 319.498 160.856 322.308 161.631 323.716C162.406 325.124 165.935 325.988 170.013 325.339C174.092 324.69 176.416 322.846 176.528 321.224C176.641 319.601 175.866 317.44 175.31 314.844C174.754 312.248 173.324 312.359 171.337 312.359C169.351 312.359 161.3 314.63 159.645 316.142Z" fill="#4C6ED7"/>
<path d="M171.562 284.341C171.622 281.681 173.191 280.37 173.31 278.546C173.497 276.135 173.294 273.71 172.708 271.361L169.688 267.318C161.002 267.429 154.778 267.571 154.679 267.604C154.348 267.708 154.123 269.551 153.904 271.063C153.904 271.063 150.216 271.524 150.878 281.583C150.971 282.985 154.692 299.203 154.963 301.053C156.619 312.352 160.307 318.011 160.307 318.011C160.307 318.011 160.638 319.42 164.941 319.095C169.245 318.771 173.548 315.961 173.548 315.961C173.548 315.961 171.337 293.966 171.562 284.341Z" fill="#263238"/>
<path d="M153.308 269.414C153.308 269.414 148.746 270.063 145.952 273.192C143.158 276.32 145.529 278.384 150.958 277.825C156.387 277.267 162.65 271.822 162.915 271.53C163.18 271.238 157.254 267.539 153.308 269.414Z" fill="#FCD9D9"/>
<path d="M161.406 271.361C164.312 271.508 167.196 271.943 170.013 272.659C173.767 273.743 180.388 275.904 181.931 275.904C183.474 275.904 183.037 270.278 183.037 269.2C183.037 268.123 163.174 267.467 160.744 267.467C158.314 267.467 161.406 271.361 161.406 271.361Z" fill="#FCD9D9"/>
<path d="M183.036 269.2C183.036 269.2 181.268 270.063 180.606 273.308C179.944 276.553 179.064 278.286 180.388 279.149C181.712 280.013 187.452 280.662 188.333 279.798C189.214 278.935 191.644 274.606 192.087 271.796C192.531 268.986 183.036 269.2 183.036 269.2Z" fill="#4C6ED7"/>
<path d="M190.538 270.278C189.512 271.432 188.692 272.749 188.115 274.172C187.647 275.661 187.278 277.179 187.009 278.715C189.122 279.282 191.187 280.007 193.187 280.882C196.722 282.394 202.681 283.478 208.415 284.776C214.149 286.074 215.698 287.372 217.684 287.372C219.67 287.372 222.1 285.854 225.192 282.18C228.284 278.507 225.629 270.712 222.544 268.331C219.459 265.949 202.9 264.008 200.695 264.657C198.49 265.306 190.538 270.278 190.538 270.278Z" fill="#263238"/>
<path d="M149.13 277.884C148.694 275.942 147.811 274.124 146.548 272.569C146.343 272.757 146.144 272.952 145.952 273.166C143.496 275.904 145.032 277.851 149.13 277.884Z" fill="#4C6ED7"/>
<path d="M250.213 267.072L247.829 264.969L242.321 253.287C242.059 252.755 241.649 252.308 241.138 251.996C240.627 251.685 240.036 251.523 239.434 251.528H132.439C131.836 251.521 131.244 251.683 130.731 251.995C130.219 252.306 129.807 252.754 129.546 253.287L122.68 267.837L121.547 267.429V270.758L121.6 270.719C121.668 271.163 121.898 271.568 122.248 271.858C122.597 272.148 123.043 272.304 123.501 272.296H248.366C248.848 272.307 249.316 272.134 249.67 271.813C250.025 271.492 250.239 271.048 250.266 270.576L250.213 267.072Z" fill="#263238"/>
<path d="M248.365 269.252H123.5C123.191 269.264 122.884 269.199 122.607 269.063C122.331 268.927 122.094 268.724 121.919 268.474C121.745 268.223 121.638 267.933 121.609 267.632C121.579 267.33 121.629 267.025 121.752 266.747L129.545 250.243C129.806 249.71 130.217 249.26 130.729 248.949C131.242 248.637 131.835 248.476 132.439 248.484H239.434C240.036 248.477 240.627 248.639 241.139 248.951C241.65 249.262 242.06 249.711 242.32 250.243L250.113 266.747C250.237 267.025 250.286 267.33 250.257 267.632C250.228 267.933 250.121 268.223 249.946 268.474C249.772 268.724 249.535 268.927 249.258 269.063C248.982 269.199 248.675 269.264 248.365 269.252Z" fill="white"/>
<g style="mix-blend-mode:multiply" opacity="0.5">
<path d="M129.824 258.167C129.824 258.167 126.996 260.069 128.764 260.763C130.532 261.458 150.852 260.939 153.328 260.244C155.804 259.55 158.625 253.144 158.625 252.106C158.625 251.067 155.063 250.321 153.752 250.263C152.441 250.204 135.12 251.236 135.12 251.236L129.824 258.167Z" fill="#4C6ED7"/>
</g>
<g style="mix-blend-mode:multiply" opacity="0.5">
<path d="M230.899 261.458C234.9 261.458 238.143 260.139 238.143 258.511C238.143 256.884 234.9 255.565 230.899 255.565C226.899 255.565 223.656 256.884 223.656 258.511C223.656 260.139 226.899 261.458 230.899 261.458Z" fill="#4C6ED7"/>
</g>
<g style="mix-blend-mode:multiply" opacity="0.5">
<path d="M184.784 265.099C199.129 265.099 210.758 262.966 210.758 260.335C210.758 257.704 199.129 255.571 184.784 255.571C170.439 255.571 158.81 257.704 158.81 260.335C158.81 262.966 170.439 265.099 184.784 265.099Z" fill="#4C6ED7"/>
</g>
<path d="M225.603 246.92C225.603 246.92 225.126 245.058 223.543 245.681C221.961 246.304 222.12 250.418 222.431 252.748C222.742 255.078 224.888 253.988 224.888 253.988V252.592C224.888 252.592 224.1 253.209 223.702 252.359C223.305 251.509 223.385 247.232 223.782 247.31C224.179 247.388 224.967 248.705 224.967 248.705C224.967 248.705 225.205 248.556 225.603 246.92Z" fill="#4C6ED7"/>
<path d="M224.464 247.232V257.434C224.464 258.635 227.278 259.608 230.754 259.608C234.23 259.608 237.037 258.635 237.037 257.434V247.232H224.464Z" fill="#4C6ED7"/>
<path d="M237.037 247.232C237.037 248.27 234.223 249.107 230.754 249.107C227.284 249.107 224.464 248.27 224.464 247.232C224.464 246.193 227.278 245.356 230.754 245.356C234.23 245.356 237.037 246.2 237.037 247.232Z" fill="#FCD9D9"/>
<path d="M236.216 247.232C236.216 248.134 233.766 248.861 230.754 248.861C227.741 248.861 225.285 248.134 225.285 247.232C225.285 246.33 227.735 245.603 230.754 245.603C233.773 245.603 236.216 246.33 236.216 247.232Z" fill="#FCD9D9"/>
<path d="M226.536 248.27C229.288 249.057 232.213 249.057 234.965 248.27C232.213 247.483 229.288 247.483 226.536 248.27Z" fill="#263238"/>
<path d="M129.043 251.892L129.122 255.383L153.123 255.617V251.58L129.043 251.892Z" fill="white"/>
<path d="M153.123 255.617L156.612 248.244V246.07L152.964 252.281L153.123 255.617Z" fill="#FCD9D9"/>
<path d="M129.043 255.072L129.122 258.57L153.123 258.803V254.767L129.043 255.072Z" fill="#F8F4F4"/>
<path d="M153.123 258.803L156.612 251.424V249.25L152.964 255.461L153.123 258.803Z" fill="#FCD9D9"/>
<path d="M138.312 243.039C138.312 243.039 138.868 241.955 138.074 241.488C137.279 241.021 136.412 242.137 135.935 242.494C135.458 242.851 125.48 249.328 125.163 250.34C124.845 251.353 125.163 253.585 127.301 253.832C129.44 254.079 131.34 252.67 132.293 252.437C133.247 252.203 133.618 252.125 133.618 252.125L140.192 243.429L138.312 243.039Z" fill="white"/>
<path d="M127.301 253.839C129.44 254.072 131.34 252.677 132.293 252.443C133.247 252.21 133.618 252.132 133.618 252.132L133.856 251.814L127.679 250.581C127.343 250.27 126.911 250.079 126.452 250.037C125.992 249.994 125.532 250.104 125.143 250.347C124.845 251.346 125.163 253.598 127.301 253.839Z" fill="white"/>
<path d="M127.698 250.594H146.237C152.024 250.594 153.765 250.282 153.765 250.282L157.327 243.059C157.327 243.059 146.072 243.76 142.596 243.526C141.159 243.485 139.729 243.329 138.318 243.059L127.698 250.594Z" fill="#F8F4F4"/>
<path d="M127.698 250.594L128.016 251.989C128.016 251.989 143.066 252.067 147.025 252.067C150.984 252.067 153.997 252.223 153.997 252.223L153.759 250.276L127.698 250.594Z" fill="#D5D5D5"/>
<path d="M153.997 252.203L157.321 244.746V243.039L153.758 250.263L153.997 252.203Z" fill="#FCD9D9"/>
<path d="M207.468 260.926H162.081C161.981 260.926 161.881 260.908 161.788 260.871C161.695 260.834 161.61 260.779 161.538 260.709C161.467 260.64 161.41 260.557 161.372 260.466C161.333 260.375 161.313 260.278 161.313 260.179C161.313 260.081 161.333 259.983 161.372 259.892C161.41 259.801 161.467 259.719 161.538 259.649C161.61 259.58 161.695 259.525 161.788 259.488C161.881 259.451 161.981 259.432 162.081 259.433H207.468C207.568 259.432 207.668 259.451 207.76 259.488C207.853 259.525 207.937 259.58 208.008 259.65C208.079 259.719 208.135 259.802 208.173 259.893C208.211 259.984 208.23 260.081 208.229 260.179C208.23 260.277 208.211 260.375 208.173 260.466C208.135 260.557 208.079 260.639 208.008 260.709C207.937 260.778 207.853 260.833 207.76 260.871C207.668 260.908 207.568 260.926 207.468 260.926Z" fill="#FCD9D9"/>
<path d="M207.852 259.42H161.69C161.521 259.42 161.359 259.357 161.236 259.244C161.113 259.13 161.038 258.975 161.028 258.81L158.519 229.248C158.508 229.156 158.516 229.064 158.545 228.976C158.573 228.888 158.62 228.807 158.682 228.738C158.745 228.669 158.822 228.614 158.908 228.577C158.994 228.539 159.087 228.52 159.181 228.521H210.368C210.462 228.52 210.555 228.539 210.641 228.577C210.727 228.614 210.804 228.669 210.866 228.738C210.929 228.807 210.976 228.888 211.004 228.976C211.032 229.064 211.041 229.156 211.03 229.248L208.521 258.81C208.51 258.976 208.435 259.132 208.311 259.246C208.186 259.36 208.022 259.422 207.852 259.42Z" fill="#F8F4F4"/>
<path d="M189.128 244.48C189.128 246.245 187.175 247.673 184.771 247.673C182.368 247.673 180.408 246.245 180.408 244.48C180.408 242.715 182.361 241.293 184.771 241.293C187.181 241.293 189.128 242.721 189.128 244.48Z" fill="#F8F4F4"/>
<path d="M192.524 165.088C193.312 164.926 195.001 164.29 196.139 161.7C196.157 161.661 196.166 161.619 196.167 161.576C196.168 161.533 196.16 161.491 196.144 161.451C196.128 161.411 196.104 161.375 196.074 161.344C196.044 161.313 196.007 161.289 195.967 161.272C195.886 161.239 195.796 161.238 195.714 161.27C195.632 161.301 195.567 161.363 195.53 161.441C194.484 163.816 192.988 164.342 192.366 164.459C193.479 163.137 194.094 161.48 194.107 159.766C194.107 155.262 189.85 151.615 184.599 151.615C179.349 151.615 175.091 155.262 175.091 159.766C175.095 161.411 175.654 163.008 176.68 164.309C175.681 164.257 173.992 164.673 171.854 167.119C171.793 167.181 171.758 167.264 171.758 167.35C171.758 167.436 171.793 167.518 171.854 167.58C171.915 167.63 171.992 167.658 172.072 167.658C172.12 167.658 172.168 167.648 172.211 167.628C172.255 167.607 172.293 167.578 172.324 167.541C175.058 164.42 176.866 164.945 177.23 165.088C176.612 165.421 176.032 165.82 175.502 166.276C172.45 168.969 170.589 174.064 170.827 178.308C171.095 181.123 172.136 183.815 173.84 186.096C176.057 184.541 177.895 182.524 179.223 180.19C180.212 178.476 181.097 176.705 181.871 174.888C181.871 176.79 182.123 179.087 183.142 180.729C183.878 182.026 184.956 183.105 186.262 183.854C187.569 184.603 189.057 184.994 190.571 184.986C191.094 184.994 191.616 184.944 192.127 184.837C192.172 184.826 192.214 184.806 192.251 184.778C192.287 184.75 192.317 184.715 192.339 184.675C194.895 185.207 197.437 185.162 197.828 184.629C198.457 183.779 199.351 181.125 199.649 177.88C200.191 172.376 196.656 167.6 192.524 165.088ZM183.758 180.333C182.474 178.276 182.514 174.92 182.666 172.993L182.752 172.772C182.813 174.755 183.328 176.698 184.26 178.459C185.192 180.219 186.516 181.752 188.135 182.942C189.029 183.548 190.02 184.002 191.068 184.285C189.446 184.396 186.109 184.091 183.758 180.333Z" fill="#263238"/>
</g>
<defs>
<linearGradient id="paint0_linear_105_1870" x1="116" y1="44.2532" x2="411.769" y2="220.341" gradientUnits="userSpaceOnUse">
<stop stop-color="#4C6ED7"/>
<stop offset="0.729167" stop-color="#1E42B1"/>
<stop offset="1" stop-color="#0F35A9"/>
</linearGradient>
<linearGradient id="paint1_linear_105_1870" x1="116" y1="44.2532" x2="411.769" y2="220.341" gradientUnits="userSpaceOnUse">
<stop stop-color="#4C6ED7"/>
<stop offset="0.729167" stop-color="#1E42B1"/>
<stop offset="1" stop-color="#0F35A9"/>
</linearGradient>
</defs>
</svg>
