<svg width="375" height="435" viewBox="0 0 375 435" fill="none" xmlns="http://www.w3.org/2000/svg">
<mask id="mask0_105_1869" style="mask-type:alpha" maskUnits="userSpaceOnUse" x="0" y="0" width="375" height="435">
<path d="M0 0H375V247.5C375 351.053 291.053 435 187.5 435C83.9466 435 0 351.053 0 247.5V0Z" fill="#4C6ED7"/>
</mask>
<g mask="url(#mask0_105_1869)">
<path d="M0 0H375V247.5C375 351.053 291.053 435 187.5 435C83.9466 435 0 351.053 0 247.5V0Z" fill="url(#paint0_linear_105_1869)"/>
<path d="M101.92 403.045C113.076 444.678 78.7055 478.925 56.2137 509.551C51.4505 505.769 46.0186 502.912 42.4859 498.543C39.2953 494.598 33.5027 489.89 29.4047 486.788C24.9287 483.4 24.1382 479.086 21.2209 474.326C14.852 463.935 11.9315 449.602 8.7731 437.814C5.5674 425.851 -0.53337 419.393 -10.6034 411.153C-33.0926 392.75 -53.6848 375.433 -70.969 351.752C-76.6837 343.923 -78.0127 333.601 -80.4819 324.386C-84.4195 309.691 -88.9447 295.032 -92.3209 280.202C-97.1 259.21 -77.7044 250.84 -60.3631 253.472C-56.0515 254.126 -52.5969 255.251 -48.566 256.366C-41.4425 258.337 -33.986 257.358 -26.9112 259.89C-13.2646 264.775 6.31242 264.596 20.3631 261.393C41.7221 256.525 59.3094 265.331 79.5416 267.095C139.103 272.288 106.579 320.873 95.6863 351.304C90.6799 365.29 98.2484 389.343 101.92 403.045Z" fill="#3E61CC"/>
<path d="M280.144 -3.23767C258.593 -40.5648 282.928 -82.5398 296.727 -117.943C302.307 -115.523 308.293 -114.169 312.836 -110.864C316.939 -107.879 323.753 -104.831 328.514 -102.895C333.714 -100.781 335.595 -96.8184 339.644 -92.9758C348.486 -84.587 355.016 -71.4983 361.118 -60.9301C367.311 -50.2036 374.875 -45.5454 386.735 -40.1923C413.221 -28.2371 437.593 -16.84 460.417 1.56077C467.964 7.64454 471.919 17.2706 476.689 25.5326C484.296 38.708 492.461 51.6955 499.56 65.1467C509.61 84.1869 493.041 97.2912 475.61 99.2374C471.276 99.7213 467.648 99.5287 463.465 99.4947C456.075 99.4346 449.126 102.311 441.637 101.696C427.191 100.509 408.327 105.75 395.584 112.479C376.213 122.709 356.946 118.756 336.946 122.288C278.07 132.688 296.911 77.3404 299.557 45.1273C300.773 30.3221 287.237 9.04795 280.144 -3.23767Z" fill="#3E61CC"/>
</g>
<path d="M166.75 142.965H177.218" stroke="#263238" stroke-width="2" stroke-miterlimit="10"/>
<path d="M171.66 141.011L170.021 145.89C170.021 145.89 120.947 151.096 116.693 143.936C112.439 136.776 119.642 134.183 136.651 136.782C153.661 139.382 171.66 141.011 171.66 141.011Z" fill="#FDFDFD" stroke="#263238" stroke-miterlimit="10"/>
<path d="M209.069 142.965H198.601" stroke="#263238" stroke-width="2" stroke-miterlimit="10"/>
<path d="M204.16 141.011L205.798 145.89C205.798 145.89 254.873 151.096 259.121 143.936C263.368 136.776 256.209 134.183 239.193 136.782C222.178 139.382 204.16 141.011 204.16 141.011Z" fill="#FDFDFD" stroke="#263238" stroke-miterlimit="10"/>
<path d="M181.844 152.524C181.844 152.524 179.997 163.029 183.319 164.019C186.64 165.009 194.562 164.789 196.767 161.858C198.973 158.926 197.492 155.995 195.047 151.585C192.602 147.175 186.18 146.912 181.844 152.524Z" fill="#FDFDFD" stroke="#263238" stroke-miterlimit="10"/>
<path d="M186.407 111.751V144.681H189.388V113.235" fill="#FDFDFD"/>
<path d="M186.407 111.751V144.681H189.388V113.235" stroke="#263238" stroke-miterlimit="10"/>
<path d="M178.976 146.699C184.943 148.578 191.349 148.578 197.316 146.699H202.011V142.47C202.011 139.338 195.803 136.832 188.146 136.832C180.489 136.832 174.281 139.338 174.281 142.47V146.699H178.976Z" fill="#FDFDFD" stroke="#263238" stroke-miterlimit="10"/>
<path d="M188.146 152.336C195.803 152.336 202.011 149.812 202.011 146.699C202.011 143.585 195.803 141.061 188.146 141.061C180.489 141.061 174.281 143.585 174.281 146.699C174.281 149.812 180.489 152.336 188.146 152.336Z" fill="#FDFDFD" stroke="#263238" stroke-miterlimit="10"/>
<path d="M188.146 152.336C195.803 152.336 202.011 149.812 202.011 146.699C202.011 143.585 195.803 141.061 188.146 141.061C180.489 141.061 174.281 143.585 174.281 146.699C174.281 149.812 180.489 152.336 188.146 152.336Z" fill="#FDFDFD" stroke="#263238" stroke-miterlimit="10"/>
<path d="M237.416 258.895H228.461V283.789H237.416V258.895Z" fill="white"/>
<path d="M235.179 260.938H230.704V275.734H235.179V260.938Z" fill="#CAC7C7"/>
<path d="M232.942 281.622C233.676 281.622 234.272 281.03 234.272 280.3C234.272 279.57 233.676 278.978 232.942 278.978C232.207 278.978 231.612 279.57 231.612 280.3C231.612 281.03 232.207 281.622 232.942 281.622Z" fill="#CAC7C7"/>
<path d="M250.203 258.895H241.248V283.789H250.203V258.895Z" fill="#CAC7C7"/>
<path d="M247.959 260.938H243.485V275.734H247.959V260.938Z" fill="white"/>
<path d="M245.729 281.622C246.463 281.622 247.059 281.03 247.059 280.3C247.059 279.57 246.463 278.978 245.729 278.978C244.994 278.978 244.399 279.57 244.399 280.3C244.399 281.03 244.994 281.622 245.729 281.622Z" fill="white"/>
<path d="M262.99 258.895H254.034V283.789H262.99V258.895Z" fill="#CAC7C7"/>
<path d="M260.746 260.938H256.272V275.734H260.746V260.938Z" fill="white"/>
<path d="M259.846 280.281C259.846 280.018 259.767 279.761 259.62 279.543C259.473 279.324 259.264 279.154 259.019 279.054C258.775 278.953 258.506 278.928 258.246 278.979C257.987 279.031 257.749 279.158 257.562 279.344C257.376 279.531 257.249 279.768 257.198 280.026C257.147 280.284 257.174 280.551 257.277 280.794C257.379 281.036 257.551 281.243 257.771 281.389C257.992 281.534 258.251 281.611 258.516 281.609C258.869 281.608 259.207 281.467 259.456 281.218C259.706 280.969 259.846 280.632 259.846 280.281Z" fill="white"/>
<path d="M275.777 258.895H266.822V283.789H275.777V258.895Z" fill="white"/>
<path d="M273.533 260.938H269.059V275.734H273.533V260.938Z" fill="#CAC7C7"/>
<path d="M272.633 280.281C272.633 280.019 272.554 279.762 272.407 279.544C272.261 279.325 272.052 279.155 271.808 279.054C271.564 278.954 271.295 278.928 271.036 278.979C270.776 279.03 270.538 279.157 270.351 279.342C270.165 279.528 270.037 279.765 269.986 280.022C269.934 280.28 269.961 280.547 270.062 280.789C270.163 281.032 270.334 281.24 270.554 281.385C270.774 281.531 271.032 281.609 271.296 281.609C271.651 281.609 271.991 281.469 272.241 281.22C272.492 280.971 272.633 280.633 272.633 280.281Z" fill="#CAC7C7"/>
<path d="M290.335 195.459V193.655H286.944V186.946H284.285V193.655H224.755V186.946H222.095V193.655H217.615V195.459H222.095V223.597H217.615V225.401H222.095V253.546H217.615V255.35H222.095V283.489H217.615V285.293H222.095V316.1H224.755V285.293H284.285V316.1H286.944V285.293H290.335V283.489H286.944V255.35H290.335V253.546H286.944V225.401H290.335V223.597H286.944V195.459H290.335ZM284.285 283.489H224.755V255.35H284.285V283.489ZM284.285 253.546H224.755V225.401H284.285V253.546ZM284.285 223.597H224.755V195.459H284.285V223.597Z" fill="white"/>
<path d="M267.931 198.703H258.975V223.597H267.931V198.703Z" fill="#CAC7C7"/>
<path d="M265.687 200.745H261.213V215.541H265.687V200.745Z" fill="#CAC7C7"/>
<path d="M264.786 220.108C264.786 219.845 264.708 219.588 264.561 219.37C264.414 219.151 264.205 218.981 263.96 218.88C263.716 218.78 263.447 218.754 263.187 218.806C262.928 218.858 262.69 218.985 262.503 219.171C262.316 219.358 262.19 219.595 262.139 219.853C262.088 220.111 262.115 220.378 262.217 220.621C262.32 220.863 262.492 221.07 262.712 221.215C262.933 221.36 263.192 221.437 263.456 221.436C263.81 221.434 264.148 221.294 264.397 221.045C264.647 220.796 264.786 220.459 264.786 220.108Z" fill="#CAC7C7"/>
<path d="M257.425 198.703H248.47V223.597H257.425V198.703Z" fill="#CAC7C7"/>
<path d="M255.188 200.745H250.713V215.541H255.188V200.745Z" fill="#CAC7C7"/>
<path d="M252.951 221.43C253.685 221.43 254.281 220.838 254.281 220.108C254.281 219.378 253.685 218.786 252.951 218.786C252.216 218.786 251.621 219.378 251.621 220.108C251.621 220.838 252.216 221.43 252.951 221.43Z" fill="#CAC7C7"/>
<path d="M246.926 198.703H237.97V223.597H246.926V198.703Z" fill="white"/>
<path d="M244.682 200.745H240.208V215.541H244.682V200.745Z" fill="#CAC7C7"/>
<path d="M242.445 221.43C243.18 221.43 243.775 220.838 243.775 220.108C243.775 219.378 243.18 218.786 242.445 218.786C241.711 218.786 241.115 219.378 241.115 220.108C241.115 220.838 241.711 221.43 242.445 221.43Z" fill="#CAC7C7"/>
<path d="M280.27 198.703H271.315V223.597H280.27V198.703Z" fill="#CAC7C7"/>
<path d="M278.033 200.745H273.558V215.541H278.033V200.745Z" fill="#CAC7C7"/>
<path d="M275.796 221.43C276.531 221.43 277.126 220.838 277.126 220.108C277.126 219.378 276.531 218.786 275.796 218.786C275.062 218.786 274.466 219.378 274.466 220.108C274.466 220.838 275.062 221.43 275.796 221.43Z" fill="#CAC7C7"/>
<path d="M235.739 198.703H226.784V223.597H235.739V198.703Z" fill="white"/>
<path d="M233.496 200.745H229.021V215.541H233.496V200.745Z" fill="#CAC7C7"/>
<path d="M231.259 221.43C231.993 221.43 232.589 220.838 232.589 220.108C232.589 219.378 231.993 218.786 231.259 218.786C230.524 218.786 229.929 219.378 229.929 220.108C229.929 220.838 230.524 221.43 231.259 221.43Z" fill="#CAC7C7"/>
<path d="M271.832 185.925H244.915C245.816 186.969 246.294 188.308 246.258 189.683C246.292 191.058 245.814 192.396 244.915 193.441H271.832C272.835 193.441 273.796 193.046 274.506 192.341C275.215 191.636 275.613 190.68 275.613 189.683C275.613 188.686 275.215 187.73 274.506 187.025C273.796 186.321 272.835 185.925 271.832 185.925Z" fill="#D4D4D4" stroke="#FFDEDE" stroke-miterlimit="10"/>
<path d="M272.891 186.075V193.21C273.666 192.979 274.347 192.507 274.833 191.863C275.318 191.219 275.583 190.438 275.588 189.633C275.579 188.831 275.313 188.054 274.827 187.414C274.342 186.774 273.663 186.305 272.891 186.075Z" fill="#9C9C9C" stroke="#FFDEDE" stroke-miterlimit="10"/>
<path d="M271.832 177.988H244.915C245.814 179.033 246.292 180.372 246.258 181.746C246.292 183.121 245.814 184.459 244.915 185.505H271.832C272.835 185.505 273.796 185.109 274.506 184.404C275.215 183.699 275.613 182.743 275.613 181.746C275.613 180.75 275.215 179.794 274.506 179.089C273.796 178.384 272.835 177.988 271.832 177.988Z" fill="#D4D4D4" stroke="#FFDEDE" stroke-miterlimit="10"/>
<path d="M272.891 178.138V185.304C273.667 185.073 274.349 184.601 274.835 183.955C275.32 183.31 275.585 182.527 275.588 181.721C275.585 180.916 275.32 180.132 274.835 179.487C274.349 178.842 273.667 178.369 272.891 178.138Z" fill="#9C9C9C" stroke="#FFDEDE" stroke-miterlimit="10"/>
<path d="M244.562 167.802H235.607V192.696H244.562V167.802Z" fill="white"/>
<path d="M242.319 169.845H237.844V184.64H242.319V169.845Z" fill="white"/>
<path d="M241.412 189.207C241.412 188.946 241.334 188.69 241.188 188.473C241.042 188.255 240.834 188.086 240.591 187.986C240.348 187.886 240.08 187.86 239.822 187.911C239.564 187.962 239.327 188.088 239.141 188.272C238.955 188.457 238.829 188.693 238.778 188.949C238.726 189.205 238.753 189.471 238.853 189.713C238.954 189.954 239.124 190.161 239.343 190.306C239.562 190.451 239.819 190.529 240.082 190.529C240.257 190.53 240.43 190.496 240.592 190.43C240.754 190.364 240.901 190.266 241.024 190.143C241.148 190.021 241.246 189.874 241.312 189.714C241.379 189.553 241.413 189.381 241.412 189.207Z" fill="white"/>
<path d="M280.27 228.408H271.315V253.302H280.27V228.408Z" fill="white"/>
<path d="M278.033 230.456H273.558V245.252H278.033V230.456Z" fill="#CAC7C7"/>
<path d="M277.126 249.819C277.126 249.557 277.048 249.302 276.902 249.084C276.756 248.867 276.548 248.698 276.305 248.598C276.062 248.498 275.795 248.471 275.537 248.522C275.279 248.573 275.042 248.699 274.856 248.884C274.67 249.069 274.543 249.305 274.492 249.561C274.44 249.817 274.467 250.083 274.567 250.325C274.668 250.566 274.839 250.773 275.057 250.918C275.276 251.063 275.533 251.141 275.796 251.141C276.148 251.139 276.486 250.999 276.735 250.752C276.984 250.504 277.125 250.169 277.126 249.819Z" fill="#CAC7C7"/>
<path d="M269.891 228.408H260.935V253.302H269.891V228.408Z" fill="white"/>
<path d="M267.647 230.456H263.173V245.252H267.647V230.456Z" fill="#CAC7C7"/>
<path d="M266.74 249.819C266.74 249.557 266.662 249.302 266.516 249.084C266.37 248.867 266.162 248.698 265.919 248.598C265.676 248.498 265.409 248.471 265.151 248.522C264.893 248.573 264.656 248.699 264.47 248.884C264.284 249.069 264.157 249.305 264.106 249.561C264.054 249.817 264.081 250.083 264.181 250.325C264.282 250.566 264.453 250.773 264.671 250.918C264.89 251.063 265.147 251.141 265.41 251.141C265.585 251.141 265.758 251.106 265.919 251.04C266.081 250.973 266.227 250.876 266.351 250.753C266.474 250.631 266.572 250.485 266.639 250.325C266.706 250.164 266.74 249.992 266.74 249.819Z" fill="#CAC7C7"/>
<path d="M248.464 228.408H239.508V253.302H248.464V228.408Z" fill="white"/>
<path d="M246.22 230.456H241.745V245.252H246.22V230.456Z" fill="#CAC7C7"/>
<path d="M245.313 249.819C245.313 249.557 245.235 249.302 245.089 249.084C244.943 248.867 244.735 248.698 244.492 248.598C244.249 248.498 243.981 248.471 243.723 248.522C243.465 248.573 243.228 248.699 243.042 248.884C242.856 249.069 242.73 249.305 242.678 249.561C242.627 249.817 242.653 250.083 242.754 250.325C242.855 250.566 243.025 250.773 243.244 250.918C243.463 251.063 243.72 251.141 243.983 251.141C244.157 251.141 244.33 251.106 244.492 251.04C244.653 250.973 244.8 250.876 244.923 250.753C245.047 250.631 245.145 250.485 245.212 250.325C245.278 250.164 245.313 249.992 245.313 249.819Z" fill="#CAC7C7"/>
<path d="M259.505 228.408H250.55V253.302H259.505V228.408Z" fill="white"/>
<path d="M257.261 230.456H252.787V245.252H257.261V230.456Z" fill="#CAC7C7"/>
<path d="M256.354 249.819C256.354 249.557 256.276 249.302 256.13 249.084C255.984 248.867 255.776 248.698 255.533 248.598C255.29 248.498 255.023 248.471 254.765 248.522C254.507 248.573 254.27 248.699 254.084 248.884C253.898 249.069 253.771 249.305 253.72 249.561C253.668 249.817 253.695 250.083 253.795 250.325C253.896 250.566 254.067 250.773 254.285 250.918C254.504 251.063 254.761 251.141 255.024 251.141C255.199 251.141 255.372 251.106 255.533 251.04C255.695 250.973 255.841 250.876 255.965 250.753C256.088 250.631 256.186 250.485 256.253 250.325C256.32 250.164 256.354 249.992 256.354 249.819Z" fill="#CAC7C7"/>
<path d="M165.37 258.895H156.415V283.789H165.37V258.895Z" fill="white"/>
<path d="M163.127 260.938H158.652V275.734H163.127V260.938Z" fill="white"/>
<path d="M160.89 281.622C161.624 281.622 162.22 281.03 162.22 280.3C162.22 279.57 161.624 278.978 160.89 278.978C160.155 278.978 159.56 279.57 159.56 280.3C159.56 281.03 160.155 281.622 160.89 281.622Z" fill="white"/>
<path d="M178.151 258.895H169.196V283.789H178.151V258.895Z" fill="white"/>
<path d="M175.913 260.938H171.439V275.734H175.913V260.938Z" fill="white"/>
<path d="M173.677 281.622C174.411 281.622 175.007 281.03 175.007 280.3C175.007 279.57 174.411 278.978 173.677 278.978C172.942 278.978 172.347 279.57 172.347 280.3C172.347 281.03 172.942 281.622 173.677 281.622Z" fill="white"/>
<path d="M190.938 258.895H181.983V283.789H190.938V258.895Z" fill="white"/>
<path d="M188.701 260.938H184.226V275.734H188.701V260.938Z" fill="white"/>
<path d="M186.464 281.622C187.198 281.622 187.794 281.03 187.794 280.3C187.794 279.57 187.198 278.978 186.464 278.978C185.729 278.978 185.134 279.57 185.134 280.3C185.134 281.03 185.729 281.622 186.464 281.622Z" fill="white"/>
<path d="M203.725 258.895H194.769V283.789H203.725V258.895Z" fill="white"/>
<path d="M201.481 260.938H197.007V275.734H201.481V260.938Z" fill="white"/>
<path d="M200.581 280.281C200.581 280.018 200.502 279.761 200.355 279.543C200.208 279.324 199.999 279.154 199.754 279.054C199.51 278.953 199.241 278.928 198.981 278.979C198.722 279.031 198.484 279.158 198.297 279.344C198.11 279.531 197.984 279.768 197.933 280.026C197.882 280.284 197.909 280.551 198.012 280.794C198.114 281.036 198.286 281.243 198.506 281.389C198.727 281.534 198.986 281.611 199.251 281.609C199.604 281.608 199.942 281.467 200.191 281.218C200.441 280.969 200.581 280.632 200.581 280.281Z" fill="white"/>
<path d="M152.703 186.946H150.043V316.1H152.703V186.946Z" fill="white"/>
<path d="M214.893 186.946H212.233V316.1H214.893V186.946Z" fill="white"/>
<path d="M218.283 193.655H145.562V195.459H218.283V193.655Z" fill="white"/>
<path d="M218.283 223.597H145.562V225.401H218.283V223.597Z" fill="white"/>
<path d="M218.283 253.546H145.562V255.35H218.283V253.546Z" fill="white"/>
<path d="M218.283 283.489H145.562V285.293H218.283V283.489Z" fill="white"/>
<path d="M195.879 198.703H186.923V223.597H195.879V198.703Z" fill="white"/>
<path d="M193.635 200.745H189.161V215.541H193.635V200.745Z" fill="white"/>
<path d="M192.734 220.108C192.734 219.845 192.656 219.588 192.509 219.37C192.362 219.151 192.153 218.981 191.908 218.88C191.664 218.78 191.395 218.754 191.135 218.806C190.876 218.858 190.638 218.985 190.451 219.171C190.264 219.358 190.138 219.595 190.087 219.853C190.036 220.111 190.063 220.378 190.165 220.621C190.268 220.863 190.44 221.07 190.66 221.215C190.881 221.36 191.14 221.437 191.404 221.436C191.758 221.434 192.096 221.294 192.345 221.045C192.595 220.796 192.734 220.459 192.734 220.108Z" fill="white"/>
<path d="M185.379 198.703H176.424V223.597H185.379V198.703Z" fill="white"/>
<path d="M183.136 200.745H178.661V215.541H183.136V200.745Z" fill="#CAC7C7"/>
<path d="M180.899 221.43C181.633 221.43 182.229 220.838 182.229 220.108C182.229 219.378 181.633 218.786 180.899 218.786C180.164 218.786 179.569 219.378 179.569 220.108C179.569 220.838 180.164 221.43 180.899 221.43Z" fill="#CAC7C7"/>
<path d="M174.874 198.703H165.918V223.597H174.874V198.703Z" fill="white"/>
<path d="M172.63 200.745H168.156V215.541H172.63V200.745Z" fill="#CAC7C7"/>
<path d="M170.393 221.43C171.128 221.43 171.723 220.838 171.723 220.108C171.723 219.378 171.128 218.786 170.393 218.786C169.658 218.786 169.063 219.378 169.063 220.108C169.063 220.838 169.658 221.43 170.393 221.43Z" fill="#CAC7C7"/>
<path d="M208.224 198.703H199.269V223.597H208.224V198.703Z" fill="white"/>
<path d="M205.981 200.745H201.506V215.541H205.981V200.745Z" fill="#CAC7C7"/>
<path d="M203.744 221.43C204.479 221.43 205.074 220.838 205.074 220.108C205.074 219.378 204.479 218.786 203.744 218.786C203.01 218.786 202.414 219.378 202.414 220.108C202.414 220.838 203.01 221.43 203.744 221.43Z" fill="white"/>
<path d="M163.687 198.703H154.732V223.597H163.687V198.703Z" fill="white"/>
<path d="M161.444 200.745H156.969V215.541H161.444V200.745Z" fill="#CAC7C7"/>
<path d="M159.207 221.43C159.941 221.43 160.537 220.838 160.537 220.108C160.537 219.378 159.941 218.786 159.207 218.786C158.472 218.786 157.877 219.378 157.877 220.108C157.877 220.838 158.472 221.43 159.207 221.43Z" fill="#CAC7C7"/>
<path d="M163.687 168.636H154.732V193.53H163.687V168.636Z" fill="white"/>
<path d="M161.444 170.678H156.969V185.474H161.444V170.678Z" fill="#CAC7C7"/>
<path d="M159.207 191.362C159.941 191.362 160.537 190.77 160.537 190.04C160.537 189.31 159.941 188.718 159.207 188.718C158.472 188.718 157.877 189.31 157.877 190.04C157.877 190.77 158.472 191.362 159.207 191.362Z" fill="#CAC7C7"/>
<path d="M173.525 168.636H164.57V193.53H173.525V168.636Z" fill="white"/>
<path d="M171.288 170.678H166.813V185.474H171.288V170.678Z" fill="#CAC7C7"/>
<path d="M169.051 191.362C169.785 191.362 170.381 190.77 170.381 190.04C170.381 189.31 169.785 188.718 169.051 188.718C168.316 188.718 167.721 189.31 167.721 190.04C167.721 190.77 168.316 191.362 169.051 191.362Z" fill="#CAC7C7"/>
<path d="M198.935 194.024V185.123H173.891V194.024H198.935Z" fill="white"/>
<path d="M196.881 191.794V187.347H182.001V191.794H196.881Z" fill="#CAC7C7"/>
<path d="M177.433 190.892C177.696 190.892 177.953 190.814 178.171 190.669C178.39 190.524 178.561 190.318 178.661 190.076C178.762 189.835 178.788 189.569 178.737 189.312C178.686 189.056 178.559 188.821 178.373 188.636C178.187 188.451 177.95 188.325 177.692 188.274C177.434 188.223 177.167 188.249 176.924 188.349C176.681 188.449 176.473 188.619 176.327 188.836C176.181 189.053 176.103 189.309 176.103 189.57C176.104 189.92 176.245 190.256 176.494 190.503C176.743 190.751 177.08 190.89 177.433 190.892Z" fill="#CAC7C7"/>
<path d="M208.224 228.408H199.269V253.302H208.224V228.408Z" fill="white"/>
<path d="M205.981 230.456H201.506V245.252H205.981V230.456Z" fill="white"/>
<path d="M205.074 249.819C205.074 249.557 204.996 249.302 204.85 249.084C204.704 248.867 204.496 248.698 204.253 248.598C204.01 248.498 203.743 248.471 203.485 248.522C203.227 248.573 202.99 248.699 202.804 248.884C202.618 249.069 202.491 249.305 202.44 249.561C202.388 249.817 202.415 250.083 202.515 250.325C202.616 250.566 202.786 250.773 203.005 250.918C203.224 251.063 203.481 251.141 203.744 251.141C203.919 251.141 204.092 251.106 204.253 251.04C204.414 250.973 204.561 250.876 204.685 250.753C204.808 250.631 204.906 250.485 204.973 250.325C205.04 250.164 205.074 249.992 205.074 249.819Z" fill="white"/>
<path d="M197.839 228.408H188.883V253.302H197.839V228.408Z" fill="white"/>
<path d="M195.595 230.456H191.121V245.252H195.595V230.456Z" fill="white"/>
<path d="M194.688 249.819C194.688 249.557 194.61 249.302 194.464 249.084C194.318 248.867 194.11 248.698 193.867 248.598C193.624 248.498 193.356 248.471 193.098 248.522C192.84 248.573 192.604 248.699 192.418 248.884C192.232 249.069 192.105 249.305 192.054 249.561C192.002 249.817 192.029 250.083 192.129 250.325C192.23 250.566 192.4 250.773 192.619 250.918C192.838 251.063 193.095 251.141 193.358 251.141C193.533 251.141 193.706 251.106 193.867 251.04C194.028 250.973 194.175 250.876 194.298 250.753C194.422 250.631 194.52 250.485 194.587 250.325C194.654 250.164 194.688 249.992 194.688 249.819Z" fill="white"/>
<path d="M176.411 228.408H167.456V253.302H176.411V228.408Z" fill="white"/>
<path d="M174.168 230.456H169.693V245.252H174.168V230.456Z" fill="white"/>
<path d="M173.261 249.819C173.261 249.557 173.183 249.302 173.037 249.084C172.891 248.867 172.683 248.698 172.44 248.598C172.197 248.498 171.929 248.471 171.671 248.522C171.413 248.573 171.176 248.699 170.99 248.884C170.804 249.069 170.678 249.305 170.626 249.561C170.575 249.817 170.601 250.083 170.702 250.325C170.803 250.566 170.973 250.773 171.192 250.918C171.411 251.063 171.668 251.141 171.931 251.141C172.105 251.141 172.278 251.106 172.44 251.04C172.601 250.973 172.748 250.876 172.871 250.753C172.995 250.631 173.093 250.485 173.16 250.325C173.226 250.164 173.261 249.992 173.261 249.819Z" fill="white"/>
<path d="M187.453 228.408H178.497V253.302H187.453V228.408Z" fill="white"/>
<path d="M185.209 230.456H180.735V245.252H185.209V230.456Z" fill="white"/>
<path d="M184.302 249.819C184.302 249.557 184.224 249.302 184.078 249.084C183.932 248.867 183.724 248.698 183.481 248.598C183.238 248.498 182.971 248.471 182.713 248.522C182.455 248.573 182.218 248.699 182.032 248.884C181.846 249.069 181.719 249.305 181.668 249.561C181.616 249.817 181.643 250.083 181.743 250.325C181.844 250.566 182.015 250.773 182.233 250.918C182.452 251.063 182.709 251.141 182.972 251.141C183.147 251.141 183.32 251.106 183.481 251.04C183.643 250.973 183.789 250.876 183.913 250.753C184.036 250.631 184.134 250.485 184.201 250.325C184.268 250.164 184.302 249.992 184.302 249.819Z" fill="white"/>
<path d="M92.8013 258.895H83.8459V283.789H92.8013V258.895Z" fill="white"/>
<path d="M90.5578 260.938H86.0833V275.734H90.5578V260.938Z" fill="#CAC7C7"/>
<path d="M88.3271 281.622C89.0616 281.622 89.657 281.03 89.657 280.3C89.657 279.57 89.0616 278.978 88.3271 278.978C87.5925 278.978 86.9971 279.57 86.9971 280.3C86.9971 281.03 87.5925 281.622 88.3271 281.622Z" fill="#CAC7C7"/>
<path d="M105.588 258.895H96.6329V283.789H105.588V258.895Z" fill="white"/>
<path d="M103.345 260.938H98.8701V275.734H103.345V260.938Z" fill="#CAC7C7"/>
<path d="M101.114 281.622C101.848 281.622 102.444 281.03 102.444 280.3C102.444 279.57 101.848 278.978 101.114 278.978C100.379 278.978 99.7839 279.57 99.7839 280.3C99.7839 281.03 100.379 281.622 101.114 281.622Z" fill="#CAC7C7"/>
<path d="M118.375 258.895H109.42V283.789H118.375V258.895Z" fill="#CAC7C7"/>
<path d="M116.132 260.938H111.657V275.734H116.132V260.938Z" fill="white"/>
<path d="M113.895 281.622C114.629 281.622 115.225 281.03 115.225 280.3C115.225 279.57 114.629 278.978 113.895 278.978C113.16 278.978 112.565 279.57 112.565 280.3C112.565 281.03 113.16 281.622 113.895 281.622Z" fill="white"/>
<path d="M131.162 258.895H122.207V283.789H131.162V258.895Z" fill="white"/>
<path d="M128.919 260.938H124.444V275.734H128.919V260.938Z" fill="#CAC7C7"/>
<path d="M126.682 281.622C127.416 281.622 128.012 281.03 128.012 280.3C128.012 279.57 127.416 278.978 126.682 278.978C125.947 278.978 125.352 279.57 125.352 280.3C125.352 281.03 125.947 281.622 126.682 281.622Z" fill="#CAC7C7"/>
<path d="M80.1345 186.946H77.4745V316.1H80.1345V186.946Z" fill="white"/>
<path d="M142.33 186.946H139.67V316.1H142.33V186.946Z" fill="white"/>
<path d="M145.72 193.655H73V195.459H145.72V193.655Z" fill="white"/>
<path d="M145.72 223.597H73V225.401H145.72V223.597Z" fill="white"/>
<path d="M145.72 253.546H73V255.35H145.72V253.546Z" fill="white"/>
<path d="M145.72 283.489H73V285.293H145.72V283.489Z" fill="white"/>
<path d="M123.316 198.703H114.361V223.597H123.316V198.703Z" fill="#CAC7C7"/>
<path d="M121.073 200.745H116.598V215.541H121.073V200.745Z" fill="white"/>
<path d="M120.172 220.108C120.172 219.845 120.093 219.589 119.947 219.37C119.8 219.152 119.591 218.982 119.347 218.881C119.103 218.781 118.834 218.754 118.575 218.805C118.316 218.857 118.077 218.983 117.891 219.169C117.704 219.355 117.576 219.591 117.525 219.849C117.473 220.106 117.5 220.374 117.601 220.616C117.702 220.859 117.873 221.066 118.093 221.212C118.313 221.358 118.571 221.436 118.835 221.436C119.19 221.436 119.53 221.296 119.78 221.047C120.031 220.798 120.172 220.46 120.172 220.108Z" fill="white"/>
<path d="M112.81 198.703H103.855V223.597H112.81V198.703Z" fill="white"/>
<path d="M110.567 200.745H106.092V215.541H110.567V200.745Z" fill="#CAC7C7"/>
<path d="M108.336 221.43C109.071 221.43 109.666 220.838 109.666 220.108C109.666 219.378 109.071 218.786 108.336 218.786C107.602 218.786 107.006 219.378 107.006 220.108C107.006 220.838 107.602 221.43 108.336 221.43Z" fill="#CAC7C7"/>
<path d="M102.311 198.703H93.3558V223.597H102.311V198.703Z" fill="white"/>
<path d="M100.068 200.745H95.5931V215.541H100.068V200.745Z" fill="#CAC7C7"/>
<path d="M97.8306 221.43C98.5651 221.43 99.1606 220.838 99.1606 220.108C99.1606 219.378 98.5651 218.786 97.8306 218.786C97.0961 218.786 96.5006 219.378 96.5006 220.108C96.5006 220.838 97.0961 221.43 97.8306 221.43Z" fill="#CAC7C7"/>
<path d="M135.656 198.703H126.7V223.597H135.656V198.703Z" fill="white"/>
<path d="M133.412 200.745H128.938V215.541H133.412V200.745Z" fill="#CAC7C7"/>
<path d="M131.181 221.43C131.916 221.43 132.511 220.838 132.511 220.108C132.511 219.378 131.916 218.786 131.181 218.786C130.447 218.786 129.851 219.378 129.851 220.108C129.851 220.838 130.447 221.43 131.181 221.43Z" fill="#CAC7C7"/>
<path d="M110.271 184.954V193.855H135.315V184.954H110.271Z" fill="white"/>
<path d="M112.332 187.177V191.625H127.217V187.177H112.332Z" fill="#CAC7C7"/>
<path d="M131.812 188.079C131.547 188.078 131.288 188.155 131.068 188.3C130.847 188.445 130.675 188.652 130.573 188.895C130.471 189.137 130.443 189.405 130.494 189.663C130.545 189.921 130.672 190.158 130.858 190.344C131.045 190.531 131.283 190.658 131.542 190.709C131.802 190.761 132.071 190.735 132.315 190.635C132.56 190.535 132.769 190.364 132.916 190.146C133.063 189.927 133.142 189.67 133.142 189.407C133.142 189.056 133.002 188.719 132.753 188.471C132.503 188.222 132.165 188.081 131.812 188.079Z" fill="#CAC7C7"/>
<path d="M109.338 176.209V185.11H134.383V176.209H109.338Z" fill="white"/>
<path d="M111.393 178.433V182.88H126.278V178.433H111.393Z" fill="#CAC7C7"/>
<path d="M130.873 179.335C130.61 179.335 130.352 179.412 130.134 179.557C129.915 179.703 129.745 179.909 129.644 180.151C129.543 180.392 129.517 180.658 129.568 180.914C129.619 181.171 129.746 181.406 129.932 181.591C130.118 181.776 130.355 181.902 130.613 181.953C130.871 182.004 131.139 181.978 131.382 181.878C131.625 181.777 131.832 181.608 131.978 181.391C132.125 181.173 132.203 180.918 132.203 180.656C132.203 180.483 132.17 180.31 132.103 180.15C132.037 179.989 131.939 179.843 131.815 179.72C131.691 179.597 131.544 179.5 131.383 179.434C131.221 179.367 131.047 179.334 130.873 179.335Z" fill="#CAC7C7"/>
<path d="M91.1249 198.703H82.1696V223.597H91.1249V198.703Z" fill="white"/>
<path d="M88.8814 200.745H84.4069V215.541H88.8814V200.745Z" fill="#CAC7C7"/>
<path d="M86.6443 221.43C87.3789 221.43 87.9743 220.838 87.9743 220.108C87.9743 219.378 87.3789 218.786 86.6443 218.786C85.9098 218.786 85.3143 219.378 85.3143 220.108C85.3143 220.838 85.9098 221.43 86.6443 221.43Z" fill="#CAC7C7"/>
<path d="M135.656 228.408H126.7V253.302H135.656V228.408Z" fill="white"/>
<path d="M133.412 230.456H128.938V245.252H133.412V230.456Z" fill="#CAC7C7"/>
<path d="M132.511 249.819C132.513 249.556 132.435 249.298 132.289 249.079C132.143 248.859 131.934 248.688 131.689 248.587C131.445 248.486 131.176 248.459 130.916 248.51C130.656 248.561 130.418 248.687 130.23 248.873C130.043 249.06 129.916 249.297 129.864 249.555C129.813 249.813 129.84 250.081 129.942 250.324C130.044 250.567 130.216 250.774 130.437 250.919C130.657 251.065 130.917 251.142 131.181 251.141C131.534 251.139 131.871 250.999 132.12 250.752C132.369 250.504 132.51 250.169 132.511 249.819Z" fill="#CAC7C7"/>
<path d="M125.27 228.408H116.314V253.302H125.27V228.408Z" fill="#CAC7C7"/>
<path d="M123.033 230.456H118.558V245.252H123.033V230.456Z" fill="white"/>
<path d="M122.126 249.819C122.126 249.557 122.048 249.302 121.901 249.084C121.755 248.867 121.548 248.698 121.305 248.598C121.062 248.498 120.794 248.471 120.536 248.522C120.278 248.573 120.041 248.699 119.855 248.884C119.669 249.069 119.542 249.305 119.491 249.561C119.44 249.817 119.466 250.083 119.567 250.325C119.667 250.566 119.838 250.773 120.057 250.918C120.275 251.063 120.533 251.141 120.796 251.141C121.148 251.139 121.485 250.999 121.734 250.752C121.983 250.504 122.124 250.169 122.126 249.819Z" fill="white"/>
<path d="M93.2486 228.408H84.2933V253.302H93.2486V228.408Z" fill="#CAC7C7"/>
<path d="M91.0115 230.456H86.537V245.252H91.0115V230.456Z" fill="white"/>
<path d="M90.1044 249.819C90.1044 249.557 90.0264 249.302 89.8803 249.084C89.7342 248.867 89.5264 248.698 89.2834 248.598C89.0404 248.498 88.773 248.471 88.515 248.522C88.257 248.573 88.02 248.699 87.834 248.884C87.648 249.069 87.5213 249.305 87.47 249.561C87.4187 249.817 87.445 250.083 87.5457 250.325C87.6464 250.566 87.8168 250.773 88.0355 250.918C88.2543 251.063 88.5114 251.141 88.7744 251.141C89.1267 251.139 89.464 250.999 89.7131 250.752C89.9621 250.504 90.1028 250.169 90.1044 249.819Z" fill="white"/>
<path d="M103.843 228.408H94.8872V253.302H103.843V228.408Z" fill="#CAC7C7"/>
<path d="M101.605 230.456H97.1309V245.252H101.605V230.456Z" fill="white"/>
<path d="M100.698 249.819C100.698 249.557 100.62 249.302 100.474 249.084C100.328 248.867 100.12 248.698 99.8773 248.598C99.6343 248.498 99.3668 248.471 99.1089 248.522C98.8509 248.573 98.6139 248.699 98.4279 248.884C98.2419 249.069 98.1152 249.305 98.0639 249.561C98.0126 249.817 98.0389 250.083 98.1396 250.325C98.2402 250.566 98.4107 250.773 98.6294 250.918C98.8481 251.063 99.1053 251.141 99.3683 251.141C99.7205 251.139 100.058 250.999 100.307 250.752C100.556 250.504 100.697 250.169 100.698 249.819Z" fill="white"/>
<path d="M114.884 228.408H105.929V253.302H114.884V228.408Z" fill="#CAC7C7"/>
<path d="M112.647 230.456H108.172V245.252H112.647V230.456Z" fill="white"/>
<path d="M111.74 249.819C111.74 249.557 111.662 249.302 111.515 249.084C111.369 248.867 111.162 248.698 110.919 248.598C110.676 248.498 110.408 248.471 110.15 248.522C109.892 248.573 109.655 248.699 109.469 248.884C109.283 249.069 109.156 249.305 109.105 249.561C109.054 249.817 109.08 250.083 109.181 250.325C109.281 250.566 109.452 250.773 109.671 250.918C109.889 251.063 110.147 251.141 110.41 251.141C110.762 251.139 111.099 250.999 111.348 250.752C111.597 250.504 111.738 250.169 111.74 249.819Z" fill="white"/>
<path d="M108.071 316.35H94.6417L92.625 294.219H110.088L108.071 316.35Z" fill="#4C6ED7" stroke="#263238" stroke-linecap="round" stroke-linejoin="round"/>
<path d="M110.057 293.417H92.6501C92.1419 293.417 91.73 293.827 91.73 294.332V294.419C91.73 294.925 92.1419 295.334 92.6501 295.334H110.057C110.565 295.334 110.977 294.925 110.977 294.419V294.332C110.977 293.827 110.565 293.417 110.057 293.417Z" fill="#FFDEDE" stroke="#263238" stroke-linecap="round" stroke-linejoin="round"/>
<path d="M93.476 262.522C93.7438 261.923 94.1472 261.394 94.6547 260.975" stroke="#263238" stroke-linecap="round" stroke-linejoin="round"/>
<path d="M98.1269 292.221C98.1269 292.221 102.097 291.563 104.908 286.959C107.719 282.355 103.755 280.068 97.3014 274.625C93.2869 271.248 92.4109 267.421 92.8395 264.602" stroke="#263238" stroke-linecap="round" stroke-linejoin="round"/>
<path d="M106.578 291.469C108.05 290.558 109.111 289.117 109.54 287.447C110.372 284.315 109.213 280.707 104.581 277.751C99.9486 274.794 97.4655 273.992 95.3165 271.173" stroke="#263238" stroke-linecap="round" stroke-linejoin="round"/>
<path d="M103.257 292.71C103.988 292.597 104.7 292.386 105.374 292.083" stroke="#263238" stroke-linecap="round" stroke-linejoin="round"/>
<path d="M161.324 257.142C158.324 253.815 157.102 250.113 158.009 245.033C159.585 236.263 169.265 226.51 169.265 220.377C169.265 214.245 173.582 199.962 186.772 199.117C199.962 198.271 206.655 204.861 209.46 219.294C212.264 233.726 212.126 236.251 215.39 242.985C216.732 245.76 218.251 248.56 218.806 251.623C219.909 257.699 213.273 260.668 208.577 262.341C195.393 267.026 178.895 270.121 166.479 261.633C164.587 260.346 162.856 258.838 161.324 257.142Z" fill="#263238" stroke="#263238" stroke-linecap="round" stroke-linejoin="round"/>
<path d="M209.094 230.45C209.813 230.781 210.565 231.035 211.338 231.209" stroke="#FFDEDE" stroke-miterlimit="10" stroke-linecap="round"/>
<path d="M191.007 210.53C191.007 210.53 196.206 222.745 202.351 226.742C203.731 227.637 204.941 228.352 205.987 228.928" stroke="#FFDEDE" stroke-miterlimit="10" stroke-linecap="round"/>
<path d="M182.984 214.295C179.997 219.425 174.306 227.556 166.656 230.97" stroke="#FFDEDE" stroke-miterlimit="10" stroke-linecap="round"/>
<path d="M185.329 209.822C185.329 209.822 184.964 210.649 184.264 211.983" stroke="#FFDEDE" stroke-miterlimit="10" stroke-linecap="round"/>
<path d="M171.382 231.208C171.382 231.208 161.677 240.817 162.875 252.093" stroke="#FFDEDE" stroke-miterlimit="10" stroke-linecap="round"/>
<path d="M173.986 233.3C173.986 233.3 169.491 245.522 170.91 253.277" stroke="#FFDEDE" stroke-miterlimit="10" stroke-linecap="round"/>
<path d="M178.22 245.515C178.22 245.515 155.835 251.523 154.14 252.124C152.444 252.725 152.69 256.578 152.69 257.417C152.69 258.257 147.73 283.514 147.73 283.514C146.143 284.508 144.644 285.636 143.25 286.884C141.315 288.688 142.04 291.093 142.04 291.695C142.04 292.296 142.159 292.534 141.554 293.135C140.949 293.737 139.62 292.659 139.865 296.386C140.111 300.114 138.775 308.915 142.159 309.372C145.544 309.829 147.245 309.497 152.205 307.812C155.125 306.845 157.582 304.836 159.099 302.174V316.369H219.839C219.839 316.369 226.009 298.447 226.375 286.664C226.74 274.882 228.309 257.555 226.135 254.31C223.961 251.065 212.46 247.457 202.294 246.254C192.129 245.052 180.035 245.033 178.22 245.515Z" fill="#4C6ED7"/>
<g style="mix-blend-mode:multiply" opacity="0.24">
<path d="M223.822 252.343C224.137 252.713 224.27 253.026 223.999 253.151C223.167 253.546 219.26 254.799 218.787 256.446C218.314 258.094 218.51 251.435 217.602 253.383C216.695 255.331 215.466 263.042 210.493 278.59C206.517 290.999 204.361 306.86 205.704 316.35H219.839C219.839 316.35 226.009 298.428 226.375 286.646C226.74 274.863 228.309 257.536 226.135 254.291C225.505 253.493 224.718 252.83 223.822 252.343Z" fill="black"/>
</g>
<path d="M179.064 242.145C178.217 242.713 177.547 243.505 177.13 244.432C176.285 246.11 169.145 259.221 168.54 259.823C167.935 260.424 171.804 260.305 173.38 259.585C174.956 258.864 177.854 258.864 177.854 258.864L180.64 261.025L189.23 264.395C189.23 264.395 193.099 261.627 195.034 260.067C196.969 258.507 197.82 257.899 197.82 257.899C199.5 258.465 201.121 259.19 202.66 260.067C204.594 261.27 203.87 261.871 204.594 261.27C205.319 260.668 204.96 259.466 203.964 257.78C202.968 256.095 199.975 246.837 196.219 243.373C192.463 239.909 183.539 238.775 179.064 242.145Z" fill="#4C6ED7" stroke="#263238" stroke-linecap="round" stroke-linejoin="round"/>
<path d="M196.61 272.094L213.31 272.213L212.945 276.905L204.355 281.233L196.61 277.024V272.094Z" fill="#4C6ED7" stroke="#263238" stroke-linecap="round" stroke-linejoin="round"/>
<path d="M159.099 270.647L175.8 270.766L175.434 275.458L166.845 279.786L159.099 275.577V270.647Z" fill="#4C6ED7" stroke="#263238" stroke-linecap="round" stroke-linejoin="round"/>
<g style="mix-blend-mode:multiply" opacity="0.24">
<path d="M159.301 306.622C159.301 306.622 158.356 271.054 159.068 267.045C159.78 263.036 154.802 251.028 155.035 257.392C155.268 263.756 156.925 273.347 157.064 275.733C157.203 278.12 151.48 276.942 151.953 280.006C152.426 283.069 155.734 283.063 156.698 287.779C157.663 292.496 149.583 292.252 149.583 294.845C149.583 297.439 152.432 300.965 150.062 303.089C147.693 305.213 146.357 302.369 146.357 302.369C147.2 304.603 147.362 307.034 146.823 309.359C148.658 308.984 150.463 308.477 152.224 307.843C155.144 306.876 157.601 304.868 159.118 302.206V307.317L159.301 306.622Z" fill="black"/>
</g>
<path d="M178.205 245.562C178.205 245.562 155.82 251.57 154.125 252.171C152.43 252.772 152.676 256.625 152.676 257.464C152.676 258.304 147.716 283.561 147.716 283.561C146.129 284.555 144.63 285.683 143.235 286.931C141.3 288.735 142.025 291.14 142.025 291.742C142.025 292.343 142.145 292.581 141.54 293.182C140.935 293.784 139.605 292.706 139.851 296.433C140.097 300.161 138.761 308.962 142.145 309.419C145.529 309.876 147.231 309.544 152.19 307.859C155.111 306.892 157.567 304.884 159.085 302.222V316.416H219.825C219.825 316.416 225.994 298.494 226.36 286.712C226.725 274.929 228.295 257.602 226.12 254.357C223.946 251.112 212.445 247.504 202.28 246.302C192.114 245.099 180.02 245.08 178.205 245.562Z" stroke="#263238" stroke-linecap="round" stroke-linejoin="round"/>
<path d="M159.1 281.59V302.4C159.1 302.4 158.01 289.17 155.11 285.8" stroke="#263238" stroke-linecap="round" stroke-linejoin="round"/>
<path d="M142.771 292.809C142.771 292.809 149.186 295.096 150.516 299.781C151.846 304.467 150.277 307.48 150.277 307.48" stroke="#263238" stroke-linecap="round" stroke-linejoin="round"/>
<path d="M135.095 300.696C135.095 300.696 139.777 298.579 140.136 298.19C140.496 297.802 144.617 297.996 146.338 302.356C148.058 306.716 146.81 308.808 145.953 309.278C145.096 309.748 140.603 311.051 139.361 311.051C138.12 311.051 132.901 302.312 135.095 300.696Z" fill="#4C6ED7" stroke="#263238" stroke-linecap="round" stroke-linejoin="round"/>
<path d="M179.789 244.313C179.789 244.313 177.735 316.181 178.579 316.181H193.345C193.345 316.181 193.465 263.794 194.429 258.864C195.393 253.934 197.7 245.152 197.334 242.747C196.969 240.341 180.52 241.663 180.52 241.663C180.15 242.507 179.904 243.399 179.789 244.313Z" fill="#FFDEDE"/>
<path d="M179.789 244.313C179.789 244.313 177.735 316.181 178.579 316.181H193.345C193.345 316.181 193.465 263.794 194.429 258.864C195.393 253.934 197.7 245.152 197.334 242.747C196.969 240.341 180.52 241.663 180.52 241.663C180.15 242.507 179.904 243.399 179.789 244.313Z" fill="#4C6ED7"/>
<path opacity="0.7" d="M179.789 244.313C179.789 244.313 177.735 316.181 178.579 316.181H193.345C193.345 316.181 193.465 263.794 194.429 258.864C195.393 253.934 197.7 245.152 197.334 242.747C196.969 240.341 180.52 241.663 180.52 241.663C180.15 242.507 179.904 243.399 179.789 244.313Z" fill="#FFDEDE"/>
<path d="M179.789 244.313C179.789 244.313 177.735 316.181 178.579 316.181H193.345C193.345 316.181 193.465 263.794 194.429 258.864C195.393 253.934 197.7 245.152 197.334 242.747C196.969 240.341 180.52 241.663 180.52 241.663C180.15 242.507 179.904 243.399 179.789 244.313Z" stroke="#263238" stroke-linecap="round" stroke-linejoin="round"/>
<path d="M194.341 259.459C189.497 261.007 184.318 261.195 179.374 260.004C178.819 281.49 177.987 316.181 178.579 316.181H193.345C193.345 316.181 193.459 267.083 194.341 259.459Z" fill="#FFFDFD"/>
<path d="M193.377 308.877C193.377 306.91 193.377 304.686 193.414 302.3H178.46C178.46 304.705 178.403 306.923 178.39 308.877H193.377Z" fill="#263238"/>
<path d="M178.693 289.771C178.649 292.026 178.605 294.225 178.567 296.349H193.478C193.478 294.2 193.515 291.995 193.541 289.771H178.693Z" fill="#263238"/>
<path d="M178.951 277.243C178.901 279.429 178.851 281.628 178.806 283.82H193.597C193.629 281.578 193.66 279.367 193.698 277.243H178.951Z" fill="#263238"/>
<path d="M179.254 264.715C179.203 266.826 179.147 269.031 179.09 271.292H193.818C193.875 268.83 193.944 266.6 194.02 264.715H179.254Z" fill="#263238"/>
<path d="M194.341 259.459C189.497 261.007 184.318 261.195 179.374 260.004C178.819 281.49 177.987 316.181 178.579 316.181H193.345C193.345 316.181 193.459 267.083 194.341 259.459Z" stroke="#263238" stroke-linecap="round" stroke-linejoin="round"/>
<path d="M186.81 213.255C186.81 213.255 184.629 220.108 175.195 226.247C175.195 226.247 174.565 234.785 177.13 241.155C179.695 247.526 186.444 252.581 189.35 251.98C192.255 251.379 197.939 244.883 199.874 240.316C201.809 235.749 201.815 227.569 201.815 227.569C201.815 227.569 192.009 221.217 186.81 213.255Z" fill="#FFDEDE" stroke="#263238" stroke-linecap="round" stroke-linejoin="round"/>
<path d="M186.085 236.495C186.085 236.495 185.839 240.46 186.444 240.823C187.05 241.187 188.14 241.061 188.26 239.74" stroke="#263238" stroke-linecap="round" stroke-linejoin="round"/>
<path d="M184.875 243.323C184.875 243.323 188.625 244.044 190.679 242.84" stroke="#263238" stroke-linecap="round" stroke-linejoin="round"/>
<path d="M184.8 224.624C184.8 224.624 179.72 223.278 177.54 227.036" stroke="#263238" stroke-linecap="round" stroke-linejoin="round"/>
<path d="M189.684 227.506C189.684 227.506 193.206 223.979 198.173 227.161" stroke="#263238" stroke-linecap="round" stroke-linejoin="round"/>
<path d="M178.945 232.16C178.945 232.16 181.245 234.328 184.995 232.787" stroke="#263238" stroke-linecap="round" stroke-linejoin="round"/>
<path d="M190.421 232.674C190.421 232.674 193.572 234.122 196.225 232.436" stroke="#263238" stroke-linecap="round" stroke-linejoin="round"/>
<path d="M181.321 238.174C184.126 238.174 186.4 235.913 186.4 233.125C186.4 230.336 184.126 228.076 181.321 228.076C178.515 228.076 176.241 230.336 176.241 233.125C176.241 235.913 178.515 238.174 181.321 238.174Z" stroke="#263238" stroke-width="0.75" stroke-linecap="round" stroke-linejoin="round"/>
<path d="M193.446 238.174C196.251 238.174 198.525 235.913 198.525 233.125C198.525 230.336 196.251 228.076 193.446 228.076C190.641 228.076 188.366 230.336 188.366 233.125C188.366 235.913 190.641 238.174 193.446 238.174Z" stroke="#263238" stroke-width="0.75" stroke-linecap="round" stroke-linejoin="round"/>
<path d="M186.4 233.125H188.361" stroke="#263238" stroke-width="0.75" stroke-linecap="round" stroke-linejoin="round"/>
<path d="M198.526 233.125H201.501" stroke="#263238" stroke-width="0.75" stroke-linecap="round" stroke-linejoin="round"/>
<path d="M174.88 233.125H176.229" stroke="#263238" stroke-width="0.75" stroke-linecap="round" stroke-linejoin="round"/>
<path d="M183.231 233.438C183.231 233.438 184.523 233.495 183.313 233.94C182.103 234.385 180.88 234.165 179.625 233.106C179.625 233.106 182.027 233.419 183.231 233.438Z" fill="#263238" stroke="#263238" stroke-linecap="round" stroke-linejoin="round"/>
<path d="M191.99 233.137C191.99 233.137 190.73 233.025 191.845 233.62C192.961 234.216 194.228 234.165 195.627 233.269C195.608 233.3 193.188 233.3 191.99 233.137Z" fill="#263238" stroke="#263238" stroke-linecap="round" stroke-linejoin="round"/>
<path d="M211.13 274.976L209.195 255.131C209.195 255.131 205.08 254.291 203.63 253.327C202.181 252.362 200.479 251.166 200.479 251.166C200.479 251.166 199.515 252.005 198.79 251.166C198.066 250.326 195.765 248.66 195.4 247.313C195.034 245.966 197.58 244.181 199.149 242.026C200.719 239.871 202.42 237.817 203.63 237.936C204.84 238.055 210.04 243.323 212.724 247.438C215.409 251.554 216.474 252.606 216.594 254.053C216.713 255.5 219.115 262.823 219.115 262.823L219.745 275.214L211.13 274.976Z" fill="#FFDEDE" stroke="#263238" stroke-linecap="round" stroke-linejoin="round"/>
<path d="M200.48 251.166C200.48 251.166 198.097 248.829 198.097 248.127" stroke="#263238" stroke-linecap="round" stroke-linejoin="round"/>
<path d="M207.015 263.493L209.315 276.241L211.836 262.046L221.635 260.969C221.635 260.969 221.547 276.122 221.547 279.968C221.547 283.814 223.242 301.379 223.728 307.53C224.213 313.682 220.942 315.674 216.468 315.824C211.993 315.974 208.357 311.859 206.907 303.559C205.458 295.259 207.147 280.106 206.422 277.581C205.697 275.057 202.641 264.715 202.641 264.715L207.015 263.493Z" fill="#4C6ED7"/>
<g style="mix-blend-mode:multiply" opacity="0.24">
<path d="M218.005 315.674C221.654 315.135 224.137 312.911 223.715 307.53C223.23 301.398 221.534 283.839 221.534 279.968C221.534 276.097 221.654 260.969 221.654 260.969L220.066 261.144C219.152 264.17 214.06 281.929 216.65 294.607C219.499 308.507 221.868 309.917 218.075 315.573L218.005 315.674Z" fill="black"/>
</g>
<path d="M207.015 263.493L209.315 276.241L211.836 262.046L221.635 260.969C221.635 260.969 221.547 276.122 221.547 279.968C221.547 283.814 223.242 301.379 223.728 307.53C224.213 313.682 220.942 315.674 216.468 315.824C211.993 315.974 208.357 311.859 206.907 303.559C205.458 295.259 207.147 280.106 206.422 277.581C205.697 275.057 202.641 264.715 202.641 264.715L207.015 263.493Z" stroke="#263238" stroke-linecap="round" stroke-linejoin="round"/>
<path d="M130.085 313.168C130.085 313.168 129.795 315.104 131.559 315.542C133.324 315.981 137.565 314.884 137.918 313.982C138.023 313.735 138.053 313.463 138.003 313.199C137.954 312.935 137.828 312.691 137.641 312.498H133.771C133.771 312.498 130.853 311.602 130.085 313.168Z" fill="#FFDEDE" stroke="#263238" stroke-linecap="round" stroke-linejoin="round"/>
<path d="M112.76 292.296L128.799 303.371L129.996 301.786L113.882 290.617L112.76 292.296Z" fill="#263238" stroke="#263238" stroke-linecap="round" stroke-linejoin="round"/>
<path d="M116.485 294.864L117.732 293.286L113.882 290.617L112.76 292.296L116.485 294.864Z" fill="#FFDEDE" stroke="#263238" stroke-linecap="round" stroke-linejoin="round"/>
<path d="M132.599 312.999C135.11 312.881 137.499 311.89 139.349 310.199C142.222 307.418 142.418 305.557 138.536 301.561C134.654 297.564 126.165 302.243 125.894 304.01C125.623 305.776 132.599 312.999 132.599 312.999Z" fill="#FFDEDE" stroke="#263238" stroke-linecap="round" stroke-linejoin="round"/>
<path d="M141.189 305.776C141.189 305.776 140.092 308.05 139.053 308.908C138.013 309.767 136.362 309.998 135.385 308.614C134.408 307.23 133.406 302.932 132.555 302.845C131.704 302.757 127.463 301.373 126.253 299.713C125.043 298.053 125.106 296.768 127.772 297.558C130.438 298.347 137.572 299.268 137.572 299.268C137.572 299.268 139.261 300.276 140.433 303.816" fill="#FFDEDE"/>
<path d="M141.189 305.776C141.189 305.776 140.092 308.05 139.053 308.908C138.013 309.767 136.362 309.998 135.385 308.614C134.408 307.23 133.406 302.932 132.555 302.845C131.704 302.757 127.463 301.373 126.253 299.713C125.043 298.053 125.106 296.768 127.772 297.558C130.438 298.347 137.572 299.268 137.572 299.268C137.572 299.268 139.261 300.276 140.433 303.816" stroke="#263238" stroke-linecap="round" stroke-linejoin="round"/>
<path d="M127.469 311.101C127.847 311.564 129.089 313.663 129.675 313.807C130.261 313.951 133.86 311.677 135.246 309.942C136.633 308.207 134.049 305.801 133.311 305.463C132.574 305.125 127.469 311.101 127.469 311.101Z" fill="#FFDEDE" stroke="#263238" stroke-linecap="round" stroke-linejoin="round"/>
<path d="M125.635 304.837C125.635 304.837 122.484 306.716 123.234 308.006C123.984 309.297 126.505 311.257 127.312 310.913C128.118 310.568 133.551 308.056 133.526 306.685C133.5 305.313 133.412 303.678 130.633 303.903C128.939 304.044 127.265 304.357 125.635 304.837Z" fill="#FFDEDE" stroke="#263238" stroke-linecap="round" stroke-linejoin="round"/>
<path d="M122.484 299.631C122.484 299.631 120.953 302.726 122.358 304.066C123.764 305.407 132.442 305.375 132.883 303.797C133.324 302.218 130.072 301.88 127.683 300.859C125.295 299.838 122.818 298.898 122.484 299.631Z" fill="#FFDEDE" stroke="#263238" stroke-linecap="round" stroke-linejoin="round"/>
<path d="M156.137 315.749C156.137 315.749 155.898 311.658 152.268 310.218C148.638 308.777 146.697 309.372 138.592 311.539C133.485 312.867 128.254 313.673 122.982 313.945V315.749H156.137Z" fill="#BCBBBB" stroke="#263238" stroke-linecap="round" stroke-linejoin="round"/>
<path d="M156.005 315.749C156.005 315.749 156.245 311.658 159.875 310.218C163.505 308.777 165.439 309.372 173.55 311.539C178.656 312.867 183.884 313.673 189.154 313.945V315.749H156.005Z" fill="#BCBBBB" stroke="#263238" stroke-linecap="round" stroke-linejoin="round"/>
<path d="M190.503 315.028H122.138V316.35H190.503V315.028Z" fill="#263238" stroke="#263238" stroke-linecap="round" stroke-linejoin="round"/>
<path d="M82.2705 316.35H302" stroke="#263238" stroke-linecap="round" stroke-linejoin="round"/>
<path d="M299.479 280.031H252.894L237.044 316.469H283.629L299.479 280.031Z" fill="#FFDEDE" stroke="#263238" stroke-linecap="round" stroke-linejoin="round"/>
<path d="M301.294 280.031H254.709L238.859 316.469H285.444L301.294 280.031Z" fill="#263238" stroke="#263238" stroke-linecap="round" stroke-linejoin="round"/>
<path d="M273.804 302.206C272.607 304.085 270.363 304.824 268.794 303.834C267.225 302.845 266.903 300.521 268.113 298.635C269.324 296.75 271.554 296.023 273.155 297.006C274.756 297.99 275.002 300.326 273.804 302.206Z" fill="white" stroke="#4C6ED7" stroke-linecap="round" stroke-linejoin="round"/>
<path d="M237.649 315.029H203.649V316.35H237.649V315.029Z" fill="#FFDEDE" stroke="#263238" stroke-linecap="round" stroke-linejoin="round"/>
<mask id="mask1_105_1869" style="mask-type:alpha" maskUnits="userSpaceOnUse" x="0" y="0" width="375" height="435">
<path d="M0 0H375V247.5C375 351.053 291.053 435 187.5 435C83.9466 435 0 351.053 0 247.5V0Z" fill="#4C6ED7"/>
</mask>
<g mask="url(#mask1_105_1869)">
</g>
<defs>
<linearGradient id="paint0_linear_105_1869" x1="116" y1="44.2532" x2="411.769" y2="220.341" gradientUnits="userSpaceOnUse">
<stop stop-color="#4C6ED7"/>
<stop offset="0.729167" stop-color="#1E42B1"/>
<stop offset="1" stop-color="#0F35A9"/>
</linearGradient>
</defs>
</svg>
